<mxfile host="app.diagrams.net" modified="2020-10-15T14:39:11.465Z" agent="5.0 (Macintosh; Intel Mac OS X 10_14_6) AppleWebKit/537.36 (KHTML, like Gecko) Chrome/86.0.4240.75 Safari/537.36" etag="Ij4Aupa1ao7Nz_k2sxYq" version="13.8.0" type="github">
  <diagram id="7eoKRLfBZv_yz7Tec_YO" name="Page-1">
    <mxGraphModel dx="1036" dy="439" grid="1" gridSize="10" guides="1" tooltips="1" connect="1" arrows="1" fold="1" page="1" pageScale="1" pageWidth="827" pageHeight="1169" math="0" shadow="0">
      <root>
        <mxCell id="0" />
        <mxCell id="1" parent="0" />
        <mxCell id="Y5B8-I-8RTdAzDm99DYk-1" value="" style="shape=image;verticalLabelPosition=bottom;labelBackgroundColor=#ffffff;verticalAlign=top;aspect=fixed;imageAspect=0;image=data:image/png,iVBORw0KGgoAAAANSUhEUgAAAkcAAAJQCAYAAACEkMDUAAAgAElEQVR4Xuy9B3jcV5X3/52qUe+y5CJXufe4xHF6L6QQQghJ6KEF2PACu/tue/+7b9nGssBSQoeQBUIJJCE9IZUkjp24925JltX7jKbP/zl3PLItS5o+8yvf8zzzyLZuOfdzr+yv7z33XEskEomARgIkQAIkQAIkQAIkoAhYKI64EkiABEiABEiABEjgDAGKI64GEiABEiABEiABEjiLAMURlwMJkAAJkAAJkAAJUBxxDZAACZAACZAACZDA+AS4c8SVQQIkQAIkQAIkQALcOeIaIAESIAESIAESIAHuHHENkAAJkAAJkAAJkEBcAjxWi4uIBUiABEiABEiABMxEgOLITLPNsZIACZAACZAACcQlQHEUFxELkAAJkAAJkAAJmIkAxZGZZptjJQESIAESIAESiEuA4iguIhYgARIgARIgARIwEwGKIzPNNsdKAiRAAiRAAiQQlwDFUVxELEACJEACJEACJGAmAhRHZpptjpUESIAESIAESCAuAYqjuIhYgARIgARIgARIwEwEKI7MNNscKwmQAAmQAAmQQFwCFEdxEbEACZAACZAACZCAmQhQHJlptjlWEiABEiABEiCBuAQojuIiYgESIAESIAESIAEzEaA4MtNsc6wkQAIkQAIkQAJxCVAcxUXEAiRAAiRAAiRAAmYiQHFkptnmWEmABEiABEiABOISoDiKi4gFSIAESIAESIAEzESA4shMs82xkgAJkAAJkAAJxCVAcRQXEQuQAAmQAAmQAAmYiQDFkZlmm2MlARIgARIgARKIS4DiKC4iFiABEiABEiABEjATAYojM802x0oCJEACJEACJBCXAMVRXEQsQAIkQAIkQAIkYCYCFEdmmm2OlQRIgARIgARIIC4BiqO4iFiABEiABEiABEjATAQojsw02xwrCZAACZAACZBAXAIUR3ERsQAJkAAJkAAJkICZCFAcmWm2OVYSIAESIAESIIG4BCiO4iJiARIgARIgARIgATMRoDgy02xzrCRAAiRAAiRAAnEJUBzFRcQCJEACJEACJEACZiJAcWSm2eZYSYAESIAESIAE4hKgOIqLiAVIgAQyRSAcBgIBIBiMfkKhMx/5nnwikejnbLNYgNjHagVstjMfux04+5MpX9kOCZCAeQlQHJl37jlyEsgoARE2Xu+Zj88HyMfvP/MRMZRNEwHldJ75FBQAsY/LBcjH4cimB2ybBEjACAQojowwixwDCeSQgAgctxvweM58RkaiokgPJuKosDD6KSoCioujX0VE0UiABEhACFAccR2QAAlMSEB2g4aGgOHh6NeYKDIiMtlxEqFUUgKUlkY/8mc0EiAB8xGgODLfnHPEJDAhAYkHGhgABgejHxFEZjbZXRKRVF4OlJVFd5hoJEACxidAcWT8OeYISWBCAhL43N9/5iM7RLSJCcjRW0VFVCxVVnJniWuFBIxKgOLIqDPLcZHABAQkNqivD+jtjX4dezOM4BInILtKIpLkIztLNBIgAWMQoDgyxjxyFCQwKQGJFRIx1NPDo7JsLRXZVaqqAqqro2KJRgIkoF8CFEf6nTt6TgKTEpAbZN3d0Q+Py3K7WORGXE1N9CPHcDQSIAF9EaA40td80VsSmJSAJFbs6op+JLCaln8Ckluptjb6kdtwNBIgAe0ToDjS/hzRQxKIS0CCqjs6gM7OuEVZII8EJJC7ri76kUzfNBIgAW0SoDjS5rzQKxKIS0B2iUQQyUdiimj6ISDPn0yZEv1IXiUaCZCAtghQHGlrPugNCcQlIPFD7e3RD2+axcWl+QISvF1fH41PopEACWiDAMWRNuaBXpBAXAJy7b6tLXrrjGY8ApJgsqEh+pE34mgkQAL5I0BxlD/27JkEEiIgwdUiiiRjNc34BOSm29Sp0Y/dbvzxcoQkoEUCFEdanBX6RAKIxhKdPMl4IrMuBgnYnjYt+hHBRCMBEsgdAYqj3LFmTySQEAG5cdbaSlGUECwTFIqJpOnTuZNkgunmEDVCgOJIIxNBN0hAkjWKKDL7Y69cCeMTkBtuM2YAIpIYk8RVQgLZJUBxlF2+bJ0E4hKQZI0tLdF3zmgkEI+APFMiIkkCt2kkQALZIUBxlB2ubJUE4hKQB2Cbm6OxRTQSSJaA5EdqbIy+5UYjARLILAGKo8zyZGskkBABEUUnTiRUlIVIYFICkh9p5kxAUgHQSIAEMkOA4igzHNkKCSREQOKKjh8H5FFYGglkkoDsIolIopEACaRPgOIofYZsgQTiEpAjNBFFkrOIRgLZIiC7R7Nm8agtW3zZrnkIUByZZ6450jwRkFxFx47xqY884Tdlt/Jm2+zZzI9kysnnoDNCgOIoIxjZCAmcT0Aegz16FOjvJx0SyD0BSRwpAkmEEo0ESCA5AhRHyfFiaRJIiIDkK5LdIhoJ5JtAbS0wZw7gdObbE/ZPAvohQHGkn7mipzogIIHWR44wZ5EOpspULsou0ty5gAglGgmQQHwCFEfxGbEECSREoL09KozC4YSKsxAJ5JyAJI6cNy/n3bJDEtAdAYoj3U0ZHdYaARFDhw8zmaPW5oX+jE+guDgqkMrKSIgESGAiAhRHXBskkAaBwUHg0CHA40mjEVYlgTwQkDikadPy0DG7JAEdEKA40sEk0UVtEmhrix6j0UhArwTkJltTEx+y1ev80e/sEaA4yh5btmxgArJbJDFGNBLQOwE5Zps/H5C32mgkQAJRAhRHXAkkkAQBuY128CAgx2k0EjAKAYslKpDq6owyIo6DBNIjQHGUHj/WNhGBvj7gwAEgEDDRoDlUUxHg+2ymmm4OdhICFEdcHiSQAIFTp6I30mgkYHQCsnu0YIHRR8nxkcDkBCiOuEJIIA4BeTC2pYWYSMA8BMrLgYULmVXbPDPOkY4lQHHENUECkxCQY7TOTiIiAfMRKCyMCiQGaptv7jliBmRzDZDAuASCQWD/fj4DwuVhbgI2G7BoEVBZaW4OHL35CHDnyHxzzhHHIeD1Avv2AcPDREUCJCAEJAaJN9m4FsxEgOLITLPNscYl4HYDe/cCIpBoJEACZwjIkyPyNhuNBMxAgOLIDLPMMSZEQHIXiTDiVf2EcLGQCQnMng1Mn27CgXPIpiNAcWS6KeeAxyMwMADs2QOEQuRDAiQwGYGZMwHJh0QjASMToDgy8uxybAkR6O+PCqNwOKHiLEQCpifAZJGmXwKGB0BxZPgp5gAnI0BhxPVBAqkRoEBKjRtr6YMAxZE+5oleZoGAHKXt3s0doyygZZMmIcAjNpNMtAmHSXFkwknnkKMPx4owYowRVwMJpEdg1ixgxoz02mBtEtAaAYojrc0I/ck6Abmuv2sXb6VlHTQ7MA2BuXOBqVNNM1wO1AQEKI5MMMkc4hkCkr9IhBHzGHFVkEBmCcyfD0yZktk22RoJ5IsAxVG+yLPfnBOQJ0FEGDHzdc7Rj9tha+seFBWVo6oqt4lzEul3eLgHw8N9qK+fpw1YOvFi8WKgulonztJNEpiEAMURl4dpCEiMUV+f8Ybb2XkMzzzzDcjXmNXXN+GWW/4a5eV1mhyw3+/BN795F4qLK3H//Q/lzMdE+u3tbcVDD30RhYVl+MxnfpIz34zQkcUCLF8OlJUZYTQcg5kJUByZefZNNPYDB4DOTmMP+Gc/+wK6uk5g9uzVuOOOf9TUYP1+LwYHO1BTM3PUr8ce+2fU1c3BRRfdlVNfJ+t3aKgbP/3p52G12nDHHf/EnaMUZqagICqQXK4UKrMKCWiEAMWRRiaCbmSPwPHjQEtL9trXSsvPPvtf2LXrRVx44Z245JJ7teKW8kN2turq5uKCC27WlF9nO+P1DuFnP3sAM2YsxTXX3A+nk/+6pzpZpaVRgWS1ptoC65FAfglQHOWXP3vPMoFTp4DDh7PciUaaf/bZb2HXrhfUTszGjXef41UkEobFIv9SRRCJRE7/OvOOh0JBWCwWtfMSs717X8FTT/0nrrzyk+eJo6gvlvMckXZsNmnj/O/FCo+MDKGwsHTCQUjbYuO1P16/Hs8AJNZIdrMmslxxzPzM5L7Fmhpg0aLc98seSSATBCiOMkGRbWiSgMQXSZyRWWysOHK7+7B16x+xb9/rmDt3rRJEu3Y9j2AwgMsu+wjWrLkN/f3t+N3v/gkDA+0qxuaWW/4K06cvwfHj2/DEE/+mAqbvvvvf1df9+1/Hpk2/QU9PKxyOAmzYcBfWrr1N4ZVjM9kdCgb9GBkZxOBgF26//R8gIueRR/4G4XAIBQVFqp3bb/9f6O5uxr59r+LkyX3nxBy1te3Hk09+DSJCfD43KiunYerU+XA6i5XoE6Hz8ss/Qm9vm/p+R8cRXHHFfVi9+qbRaW5rO4AXX/y+8rGvrw0NDU24+urPqPimw4c3j9uvBGn/6U8/QCDghYgk6feaaz6rjtUS4WiWNZbsOOWRWnmslkYCeiNAcaS3GaO/CREYGQF27DBXLqOx4sjrHcamTb/Fli1/UMzkqK22dhaeeeabkF2XL3zhl3C5StDbexI//vFnlXD53OceHuX73e9+BLfd9jeYOnWhOq57441f4mMf+5YSQI899i8QIXPttZ/DihXX4c9//gX27/8z7rvvQVX/N7/5B2zYcCdmzFiG2M6RCJRVq26E3z+Co0ffUbtJdrsDDzzwG1VHRMmDD34UixdfhhtueADNzbvx61//ndoduuSSD2PZsqvVeMSPj3xEjunmIHaU+KUv/R42mx0tLbvxyCN/i3vv/Q80NMzHsWNb8bvf/SOami7EjTf+j3H7PXbsXSUQr7/+C1i27Brln8QdicATYVhdPT0hjgktTBMWmjcPaGgw4cA5ZF0ToDjS9fTR+YkIiDCSLNhmsvGO1Xp6WvCTn3wOCxdegptv/kuFQ3ZItm59Uv3DP23aQvVnf/zjV9XO0Pvf/0+YNWsVWlv34sUXH8RHP/ottYvzjW/ciSlT5qKpaYMq39KyC0eObFECRITI009/HXv2vIwbbvgili69EqdOHVQ7RXJNPyaOZCdm5cobRqfke9/7OHy+4VFxtG/fa3jyyf/A5Zd/fHRH6utfvwNWq3W0zJEjm7Fly2N473v/DgUFxXj55R/jnXceHxVL0qbdXjAq0qSz11//OaZMacL8+VHfx/b7ne98CMGgb7QPKSMshIn4/4lPfBeJcjTTektmrBJ/VF6eTA2WJYH8EqA4yi9/9p4FAocOAe3tWWhY400mKo7efPMRtfvygQ/8PzQ2LlOj6u4+gZ/+9AsqGPmuu/4Zv//9/8GiRZdh0aJLR4XBihXXK+F0thUWlqjdoc7Oo3j44S+r4zMRFNdf/xejwismjq699n5IGzEbK1LkiOznP/8foz5IOdm9ksDo++77/mg9OcLbvv1pHDz4JiSIuq/vFD74wX9VOzzf/va9WL36Pbjqqk9NOFtn9yv1v/Wte0ZFUKyS7GKJaBL7ylceU7trY0XmeBw1vkTy5p7cXFu5EnA48uYCOyaBpAhQHCWFi4W1TqCtDThyROteZse/dMSRePTf//0VteNzzz3/rsTR/ff/XAVWy/HZL37xV7jwwjvU8dZEJtfgn3ji31V5Mdmpkh2rM+IoegQ3kTiSP5f6Bw78GZdf/jHYbA689davcdttfzcqtAYHO9WR1/z5F+G6676AzZt/j9dff1iJIzl+EwFTU9OIj33s2wmJIzle/Pa371Hj/NKXHj0nUP2//usu+HwefPnLf1CxSxRH6a1bSQ4pSSJpJKAHAhRHepgl+pgQATlGk+M0s1q64kjigB599H8robBu3ftG0wFI7NK3vnW32sH57Gd/PnrFXYKt//CH/4v3vOcreOut3+DSSz+s4n4OHHhDBXOXl0/Bpz71w/NijiYTR3JUJzsyS5ZcoY7s5HO2/ehHn0Vf30m1myMB5iKeJN5JxNHUqQvwta+9VxX/xCceRFXVNPXrUCiAp5/+xuix4tgdq29+804VUH7PPV9VbYjJ7+XPKysb1K7VeMdq3DlK/ietsRGYeSbVVfINsAYJ5IgAxVGOQLOb7BIIh4Ft2ySoN7v9aLn12M6P7Krceuv/VK7KbbBf/vKv1W01uT0m9vzz38WOHc+quJ1589afNaQIvvvdj6rbWbJrVFxcMfo9ETsiekpLa3DxxfeqGB1pQwKsly+/TgVgL1hw8ejOkCSkLC6uUjFMJ07sUN+X5JQSlN3VdVwFSEs8kQR3y86MCDK5OffDH35KtSlHdXa7U8UVyXGZ3KQTk2M28U+OzUT8iF+yu3PllfehsXE5dux4Dtu2PaXqXnjh+9Uxn/yZlF+wYKNqY2y/u3e/pG7aSTyVBKCLHTq0CZIs8n3v+1+YM2dNkhy1vEry79uSJUBVVf79oAckMBkBiiOuD0MQOHgQ6OgwxFCSHoSIjRdeeFD9Ax4ziSWSXEfPPvtttdMi4kOu7xcVVeC5576tRElZWa0STHKDLWYiLETM3Hbb357jh9zgkl2i5uZdo3++YcMHcPHF96jfy22vEye2K4Eh1+1FwEhwtjxfInW/972PKREj4kqeNZFdF7klJjZz5gp1O018/MEPPql8G2uxW3F79rwE2SET0SP1JL7o8cf/VdUVn0Ug/elP31eCSEz+XGKd5BaaHMk9//yD5/UrPm3d+pRKESDPrkjg+d69L+PKKz+lgstj6Q6S4Zj0JJqogmTQXrWK8UcmmnJdDpXiSJfTRqfPJiDB1xKETUufgNxMEzEjOzbjmQQwDw31oLJyqtqdiZkcXcmR2uBgt0oP4HQWnlNdxIzUm+ytN4l3euqpr+G97/17lcMoEPCpvEOSc0nyE8XeORPxFA6HR4/3pIz4Ek1yGTXxR/qrqJBn4idOJHm2k3JMKEJTxJ0IxrMTWaZPli2cTYAJIrketE6A4kjrM0T/JiUg+Yy2bgXkWI2mXwIihCQAWnaCrrjiE+cMRHah5Iq/3K6jGYfA3LnA1KnGGQ9HYiwCFEfGmk/TjUYyYEsmbJq+CchOj9wak+zdkguptnam2jmSfEvymK7EAsktNJqxCKxeDRSPv0lprIFyNLojQHGkuymjwzECra3AsWPkYRQCnZ3HsHPn8yqLtRzflZfXq2zZy5dfO+Exn1HGbtZxVFQAy6KptmgkoCkCFEeamg46kygBtzt6nEYjARLQN4FZs4AZM/Q9BnpvPAIUR8abU1OMaNcuoL/fFEPlIEnA8AR4vGb4KdbdACmOdDdldPjkSeDoUXIgARIwCoHKSmDpUqOMhuMwAgGKIyPMoonG4PUC77wDRCImGjSHSgImIMDbayaYZB0NkeJIR5NFV+W1dKCriyTMQEAelJVM3LEklfL74eFulT2bZjwCNhuwZg3gPJM+y3iD5Ih0Q4DiSDdTRUe7u4F9Z5JAE4hBCUiG7mee+SbkIVvJ8n3RRXepkf7oR5+GCKT7738IxcWVGRh9BEeOvKMe21206FJUV8/A/v2vq69nZw3PQEdsIkECU6YA8899Ti/BmixGApklQHGUWZ5sLYsE5DhNkj7SjE/gwIE/44kn/h2XXPIh9Uaa2Ntv/w4tLXvUe2eSxTpdO/spEmlL8ij19p5U4iv2llu6fbB+8gQk9khikGgkkE8CFEf5pM++EybQ3AycOJFwcRbUOYGWlt145JG/xaWXfgTr178vK6N55ZWfYu3a29Q7bW+//SgGBjqwZs2t6s02Wv4IlJYCK1fmr3/2TAJCgOKI60DzBCQIe8sWzbupSQflH349vREm/orJI7oiji6//GNYu/a9Z7GNReKfvXMUQSDgh8NRkPQcyFtysTfZ9MYq6cHqqAKDs3U0WQZ1leLIoBNrpGEdPAh0dBhpRNkfi2Sa3rbtKdjtBWpHpKnpQlx11adGhdK2bU/j3XcfVw+4+v0eFeR89dWfVrE8w8O92L37Jeze/QLWrbsdbW0HIMdcDkehEiv19fPw2msPq9ft5YHZm276EmbNWjU6qMnanmjkw8M9ePzxf1MB2CJ0gLCKL4qJo5Mn92Pfvlexd+/L+NCHvobKymmqqT//+Rdobd0Dh8OlHo2VnR/5iMnvn3vu2+jpaVbjlLiiK6/8FOx2B7ZufVLFF8ljs6tX34Q33viVinGaP/8i3HLLX48e28mfSRty3CYP3BYUFOGiiz6IxYsvz/4kmrgHux1Ytw6QIG0aCeSDAMVRPqizz4QJDAwAO3cmXJwFAbz55q/wzjuP45Of/IGKnXn55R+r319zzWfVu2WvvPITbNnyGD7+8e+o4GN5tuPhh7+kRMOnP/0TDA524bXXfq7Ej7x2f/XVn0FV1TQ8+ug/wefzqNicjRvvweBgJ1599WcoKanCpz/9Y8U+XtsuV8l5cyTi7MEHP4oFCy7G9df/hfr+b37zD5DA7Msv/7g6+pInRV566YdKMN1334NKHHV2HsVDD30RDzzwGzidLnU05ve7ccklH0Zvb6v63j33fFX5/uqrD2Hr1j+iqWkDbr31fyqx98c/flX1JUJnyZIrlEBqa9uPW2/9G8yfvwHy4O0PfvBJzJu3Hjff/BXZaMcTT/wbDhx445xYKC667BCYPh2YPTs7bbNVEohHgOIoHiF+P68E+LBscvhlB+bBBz+mXreXnSKxkZFBvP76f6sdkoKCYnzvex9XO0m33fa3o40/++x/YdeuF7F69c246qpPKgEgQkDakLbEnn/+O9ix4zncc8+/Y+rUherPfv3rv0Nz8y785V8+oXZeEml77Ij+9KcfqJ2cD3/465gyZa769sGDb+Hxx/9lVBzJn8V8jIkj2Ul68smvYdWqG3HFFfdBHq89fny7EjYirmTnaN26aLyS1zuMTZt+o379la88rnaGvv71O9RR3Oc//wv150eObMHvf/9/sHHjB9Xu0FNP/Sf27n1FicyKinpVxuMZwHe+8yH16wceeAROZ1FyE8TSSRGQq/2FhUlVYWESyAgBiqOMYGQj2SDAq/vJU5WjItkRuf32f8DcuWvPayAmei644BZceeV9o9+P1auvb1LHVocObcJjj/0zrrrq00pUib355iN4441f4t57/wMNDdH71nKjTHZhvvjF36rdHRFU8doe65Rc0R8Y6MSXv/x7tTsjFgvIvuKKj2PNmtvUn40VRyKGvv/9+9QOjxx3XXPN/eroTEyET03NTKxff8d5DJqa1qs4o7HiSHaNfvGLv1IB4BII/v3vf0Lton35y384J25LBKAIwQ9+8F8wffqS5CeJNRImwKv9CaNiwQwToDjKMFA2lzkC27cDQ0OZa88MLckOjOzESNzNFVd84rwhx0TQtGmLcPfd/zb6fREnP/jBfairm4OPfOQb44ojuUovx20TiaMjRzYrYRav7bFOffObd8Lv9+Jzn3sYRUXlY8TRJ0ZjiMaKIykYCPjw8ss/UjtaYrFxf/Wrt4yOZaJ5jyeOYiLo7PFKW48//q84ePBNfOAD/w+NjUxIme2fK7m5JjfYaCSQSwIUR7mkzb4SJtDZCRw4kHBxFjxNQI645KirsLAUn/nMT1XMkFh/fzu2b38GK1Zcr5Ipyg22L33p0dGbWrLr8+ij/1sdUUmM0Xg7R/HEkQRyJ9L22Ml66KEHVNzTDTd8EUuXXnlaHO3CI4/8nRJ4sQDrseJI8hRVVzeqAPHu7hPqdtvIyBAeeODX+NnP/kIFoo8VNhIjNXv2ajQ2Lo+7cyQ7Z8Lh4ovvwYYNHxh1+0c/+iz6+k7iC1/4JcaLoeJizCyBmhpg0aLMtsnWSCAeAYqjeIT4/bwQ2LoVcLvz0rWuO41EIvjxj+9X/3hXVjZg1aqb0NPTioMH38CHP/wNlJXVqt0d2UG69trPYcWK69R4X3jhQcgNt8985ifqxpr8Wm5pnZ1nSITF5s2/x+23/z3mzl2n6v32t/8fjh/fNrrrk0jbYwHHEj7K0dgdd/yTiu95/vnv4tChtzBjxlIVSC6B47/73T/i2LGto8dZElQuV/5vu+1vVJOSt0hihO6//2fYufMF5b+IQEkkWVpao+KorFaruo0m1/a/9rX3qkBuCegWi8U5xQSiMBQhJDzuu+/7qqyIr29/+57R2CxdLxYdOb9iBVBWpiOH6aruCVAc6X4KjTcAubYv1/dpqRGQHRw5+pEYGjE5qpIYpFicUDDox4svfk8FYC9YsBFWqx3NzTtVGdmFkV0keb5Dgo9lB0p2ktzufrz22kOQuiIWbrzxi6qOCBQRGhKrJFf6RXxN1vZEIxLRJeJLTASNiCKJO5KbYhIQLrtEe/a8rPoS0XfttZ9HR8cR5ZP0XV09XYlACaaOphWIqBtq0m7MJAbrPe/5irr2L7tkchtPbOHCS1QuJQnGlvgl2W274YYH1J9LmgDZQZKUCBLELjtJ8lV2tPSUPyq1laSdWtw90s5cmMUTiiOzzLSOxsldo8xMls/nVrl5Skqqx21QrtDLcVZxcRUqK+U2VvpPcsQ6SqVtScgosU/l5VOUCBOBI0JmIpMcRTabXYk4qTvee2vSjuQoEtGW+hFYRLUh/dTVzVU7SLTcE2DsUe6Zm7lHiiMzz74Gx97VBeyPbnjQSIAESGCUQG2t7PIRCAnkhgDFUW44s5cECezYAQwOJliYxUiABExFYPVqoLjYVEPmYPNEgOIoT+DZ7fkE+voASfpIIwESIIHxCDQ0APPmkQ0JZJ8AxVH2GbOHBAns2QP09iZYmMVIgARMSWD9esAZzVBBI4GsEaA4yhpaNpwMgeFhYNu2ZGqwLAmQgBkJNDYCM2eaceQccy4JUBzlkjb7mpDA4cPAqVMERAIkQAKTE5BdI9k9opFANglQHGWTLttOiEAwCGzaBEQiCRVnIRIgAZMTmD8fkHfXaCSQLQIUR9kiy3YTJnDyJHD0aMLFWZAESMDkBMrLgeXLTQ6Bw88qAYqjrOJl44kQYNLHRCixDAmQwNkEmBSS6yGbBCiOskmXbccl0N8P7NoVtxgLkAAJkMA5BHitnwsimwQojrJJl23HJft+kpkAACAASURBVHDgANDZGbcYC5AACZDAOQRsNmDDBsCSuVdvSJgERglQHHEx5I2ABGK/9VbeumfHJEACOifAwGydT6CG3ac40vDkGN01ubovV/hpJEACJJAKgcpKYOnSVGqyDglMToDiiCskbwR27gQGBvLWPTsmARIwAIG1awGXywAD4RA0RYDiSFPTYR5nRkaAd94xz3g5UhIggewQmDULmDEjO22zVfMSoDgy79zndeQtLcDx43l1gZ2TAAkYgEBJCbBqlQEGwiFoigDFkaamwzzOyDtq8p4ajQRIgATSJbB6NVBcnG4rrE8CZwhQHHE15JyA2w1I4kcaCZAACWSCgDxEKw/S0kggUwQojjJFku0kTIBHagmjYkESIIEECPBoLQFILJIUAYqjpHCxcCYIbN8ODA1loiW2QQIkQAJRAhdcABQVkQYJZIYAxVFmOLKVBAl4vcCWLQkWZjESIAESSJDA7NnA9OkJFmYxEohDgOKISySnBJj4Mae42RkJmIZARQWwbJlphsuBZpkAxVGWAbP5cwns2QP09pIKCZAACWSegLy1Zrdnvl22aD4CFEfmm/O8jTgSAd54A5CvNBIgARLINIGFC4Ha2ky3yvbMSIDiyIyznqcx9/UBu3fnqXN2SwIkYHgC9fVAU5Phh8kB5oAAxVEOILOLKIFjx4DWVtIgARIggewQkDfW5K01GgmkS4DiKF2CrJ8wAWbFThgVC5IACaRIgFf6UwTHaucQoDjigsgJgUAA2LQpJ12xExIgARMTmDcPaGgwMQAOPSMEKI4ygpGNxCPQ3Q3s2xevFL9PAiRAAukRkIBsCcymkUA6BCiO0qHHugkTOHoUOHky4eIsSAIkQAIpESgoANatS6kqK5HAKAGKIy6GnBDgkyE5wcxOSIAEEA3KluBsGgmkSoDiKFVyrJcwgXA4mt+IRgIkQAK5ILBgAVBXl4ue2IdRCVAcGXVmNTSugQFg504NOURXSIAEDE1g6lRg7lxDD5GDyzIBiqMsA2bz0VgjiTmikQAJkEAuCJSWAitX5qIn9mFUAhRHRp1ZDY1r/36gq0tDDtEVEiABQxOwWICLLzb0EDm4LBOgOMoyYDYPvPsu4PGQBAmQAAnkjsCqVUBJSe76Y0/GIkBxZKz51NxoQiHgzTc15xYdIgESMDiB+fOBKVMMPkgOL2sEKI6yhpYNC4HBQWDHjmywiACREIAIgDAQCZ/+dez38lUs9jXmgyX6C9l3x9kfK2CxAjj9Ub+mkYCxCYQjEQRCIQRDIQQiIYRCYYQiYYTCYcj3Yh/5OTr7J8kCC6wW+Qmywmq1wGaxwiZfrVbYrTY4rDbYbTbYrfn7OZo2DZgzx9jzx9FljwDFUfbYsmUA7e3AoUPJohDhE4x+IF9Dp38vYkg+MTGUbLvJlJe/+W1RsaS+2qNfLae/wnFaTCXTJsuSQO4IiLAZCfjhDQTgDUY/vmAQvmAA/mAI/lBQCaFsmhUWOOx2OG02FNjsKHA4UGC3w2V3wGV3otDhgMMmP1+Zt4oKYNmyzLfLFs1BgOLIHPOct1FOnhlbRJAfiASAcABA4CxRlDeXE+9Y7S6JSBLBJF+dp79m5y/7xB1jSTMRkF0et9+HYb8PHvXxwyOiKCg/U9o32WUqdDhR5HSi2Fkw+hERlY45ncD69em0wLpmJkBxZObZz8HYd+8G+vqko5gQ8gNhEUSnRVEOfMh5F2qHKSaWRDAVnN59yrkn7NBgBGQ3aNA3giGvF8M+L4Z8XiWEjGiy21RS4ELp6KdQ7TolYxs2AElWSaZ5ljUwAYojA09uXocmR2LhYWzZHIZ3RHaEfHl1J++dq92lAsAqQkk+jry7RAe0T0DigQa8HgyMjGDAO6KEkZmt0O5AWWERyl2FqHAVoshZMCmOFSuAsjIzE+PYUyVAcZQqOdYbQyAChIaA8NDprx6Ewxa88XY1SY1HYFQsuQCLfHgUx4UCRCIR9I140DfiVl9ld4g2MYECuwMVhUWoVJ/i83aW+IwIV0+qBCiOUiXHetGjsdAAEBqMfsbcDPN4bHh3RyVJJUJA4pWsLsBaGN1ZopmGgARM93iG0etxo8/jRvi8G5amQZH2QOUIrqqoBNVFxShzFaKxEZg5M+1m2YAJCVAcmXDS0xpyeOS0IBoAwu5Jm+rtc2LPfu5pJ81b7SoVRoWSCCaa4QhIAHW3exg97iEMcncoK/Mr8UmzphXgwlVFaKzgDnZWIBu4UYojA09uxoYW9gKh/ugnnHiq67Z2F44cY4ratOZBbsRZigCrfCiU0mKZ58oSON01PIQu9xCPy3I0F3aXD2UzutVtuLnVtZhbXYfpFVU56p3d6JkAxZGeZy+bvktuoVAfEOxVgdWp2LETxWhtK0ylKuuMR0B2lJRIKmZAt05WSDAcRufwIDqGB1RQNS23BKz2ECpmt5/TqRy3NdVMUZ/qYv7nLbczop/eKI70M1e58VTFD/VGRVGatv9QKbq6GT+TJsbxq0tckq04KpRUpm+alghI7FD78AA6hiQWj5ZPAlVNJyfsfmpZBRbUNWBBbb3K7k0jgRgBiiOuhWgG6lAPEOwBJKYoQ7ZzTzkGBnllPUM4J2jGAlhLokJJgrppeSMgu0SnBvvRPjSgkjLStEFAdo5kB2kykyzdC+sasGjKVNQWl2rDcXqRVwIUR3nFn+fOJX4o2B0VRVm4IfPOtkqMeHlFPWezrG67lUSP3mg5IyDX7dsG+5UwGvuSX86cYEcTEihr7IS9IPFs4TMqqrCkfpqKT6KZlwDFkRnnXo7Ogl3RW2dZtDc3VyMU4pFPFhGP37QkmLSJSJJ4CvLPFv8ejxttA33qGj5NuwRKp/bAUZx8vqjKomIsrZ+GZfXTYVEPVdPMRIDiyEyzLQHWgc64V/AzgYQJIDNBMc025KabtTT6Ue/A0TJBQAKsW/v7TJ+tOhMsc9FG8ZQ+FJQlfst2rE9y021Zw3Qsb5iR9PMluRgf+8gOAYqj7HDVVqtybBYUUZS5eKJ4A/T5rdj8Lq/MxuOUm+9bAJuIpDKKpDSASyxRa3+veuCVph8CRTUDcFWmv7tnt1qxYmojVk5thMvBWEr9rIDUPKU4So2bPmrJjbNgR05FUQyM22PH1h0V+uBkGi8pklKZarlx1tzfwyDrVOBpoE5h1RAKqzN3a1ButYlAWjVtJneSNDC/2XKB4ihbZPPZriRrDLQnlbAx0+7KLTW5rUbTIAF13FYW3U1iTNKEEyTJGpv7etTL9zT9Eigod6O4rj/jA5Abbqunz8IF02YyJinjdPPfIMVR/ucgcx5IskYRReqds/wanw7JL/+EepfHbm1l0Zgk2iiB/hEPTvT1qMdfafon4Cz1oKS+L2sDKXEW4IIZs1XwNs04BCiOjDCXER8QOJWRxI2ZwiHJHyUJJE0HBCQ/kq08+pabiU0egD3e163yFNGMQ8BRPILSqekntY1HpK6kDGtmzMbsqpp4Rfl9HRCgONLBJE3qoogi+WjM2jtdOHSEqfk1Ni2TuyP5kUQkSSoAk5mIouO93SYbtTmG6yjyoXRa7uZW8iOta5yDqiLJXk/TKwGKI73OnLqWfwqQR2E1aG3thThyjH85aHBq4rskAkk+JrDO4SEc6+3CSMBvgtGac4h2lx9lM7pyPvi1M2YrkUTTJwGKI73Nmxyh+duij8Jq2OTBWXl4lqZTAiqRpBy1GTPbthyhHentQtdw/uPzdLpCdOO2vcCPssbciyMBVFlYjAtnzcWcqlrd8KKjUQIUR3paCZKryC+PKGr/kYKWk0U43mzMf1j1tGTS9lUetrVVGio/kuQqOtLTqYOforRnjw0AsDkDKJ/ZmVcW8m7bRbPmQRJK0vRBgOJID/MkyRsDrUBoSA/eKh+bW4twooXiSDcTNpmjcvVfBJIIJR2bvIF2pKeLt9B0PIepuK4FcSR+S+LIjbOa1AO3NO0ToDjS+hwFOoCA7BbpyyiO9DVfCXmrArZlF0l/jwm39PcoYUQzHwGtiKMY+abaKbh49nwUcRdJ04uR4kir0yOB1mq3SJ8xERRHWl1YafqldpGqdBOL5An4cbirA73MWZTmxOu3us0ZRPnMDk0NQI7XLpkzH001UzTlF505Q4DiSIurIdgN+Ft0EVs0ET6KIy0urAz6JIkj7ZUZbDDzTZ0a7Meh7g6EI9qP0cv86NlijIDWdo7Onpml9dNx6dwFzFOvweVKcaSpSYkA/mZAHorVuTEgW+cTmIj7cqPNXgVYChIpnbMyIoYOdrUzmWPOiGu7Iy2LIyFXU1yCy+YuRH2pOdJnaHu1cOdIe/MjT3+IMNJo3qJkgfEqf7LEdFxedpA08gTJgNejhJHbz7xFOl5RGXXdVuBHeZ6u8iczEIlDWjF1RjJVWDaLBLhzlEW4CTcd7Dp9jJZwDc0XPHmqEEeP6/t2k+Yha8lBuckmu0h5PCA4OdCnjtFoJHA2gXwlgUxlFuQm2xXzFsFqsaRSnXUySIDiKIMwU2pKHaPlLrV9Sj6mUOlUhwuHj/L5kBTQ6beKOmarBuStthzbwc52tA1l/uX1HA+D3WWBgL3Qh7Lp+vk7tqa4FFfOW4TaEr5NmYXlkHCTFEcJo8pwQcl07TsByHGaAa2zqwAHDvOH24BTG2dIlugOUo5yIsmzH/s7T2HAO2I+1BxxQgQcxV6UTtVXHKfsHF3VtBjza+sTGiMLZZ4AxVHmmcZvUa7n+48DkWD8sjot0dPrxN4DZTr1nm6nTSAH77P1eNzY39mGQCiUtrtswLgEnCUjKGno1eUA+T5b/qaN4ijX7A0YXzQewv4BB3bt5e2LXC8vTfWn4pCqs+IS44uygtWQjRaUu1Fcp98j1wV1Dbi6abEh50bLg6I4yuXsSKZryXhtAhsetmPbrgoTjJRDnJSAXPO312Q0q/bRnk409+tzJ4CrJfcEXJVDKKrRZzLdGK2p5ZW4dv4SFDu1lTYj97OZux4pjnLFWo7Rgub5C93rtWHLNm0nCczV1Ju+H4v9tEBKP1B7X0cbOob1/Q+d6ddDjgEUVg+isEo/71JOhKfcVYhrFyxDHQO1c7KCKI6yjTkSAvzHdPsMSKp4giEL3tqcnSOVVH1ivXwSkEDtWsDqSsmJYDiMPe0n+WhsSvTMXUmO1ORozQjmsNlw3YJlmFnJv1uzPZ8UR9kkHPEDvqNA2JPNXjTb9p831YAvN2h2evLjmMQgJXmTzRsIYHfHSQz7vPnxmb3qmoAEY0tQtpHsmvlLeJMtyxNKcZQtwOGRqDCSK/smtc3vVsHnt5p09Bz2hASSyKjt9vmwu70VI8EAgZJASgTKpnfBXmi8jOmXzV0AeZuNlh0CFEfZ4Bp2A74jhr6qnwi27bsqMDRsT6Qoy5iNgK0CsE2e6mHQO4Jd7a28qm+2tZHh8VbM6oDVYcy0KRfNmodV02ZmmBibEwIUR5leB6EhwC87Rsy9InmOJN8RjQTGJTCJQOof8WDXqVaEImHCI4G0CFTOa4PFEkmrDS1XXt84B2tmzNayi7r0jeIok9Mmwkh2jMC/0AXrkWMlaGtPLQA3k9PCtjRMYJxkkX0et9oxCjNgTcMTpw/XLLYwKuec0oezaXjJZJFpwJugKsVRppgqYXQYgHH/h5IsqtaThTjWzMdnk+VmuvJnCSQKI9PNflYHbCsIoLyxM6t9aKVxCqTMzgTFUSZ4csdoXIpd3QXYf4jvq2ViiRm+DVs5+v0O7DzVwh0jw0927gao56dDUqG0rnEORCTR0idAcZQuQxV8fZgxRuNwlGBsCcqmkUA8AnJdf1+PBwMBR7yi/D4JJEzAVTGMotqBhMsboeCGmfOwejqDtNOdS4qjdAiq6/qHTH8rbSKEgYAVm96pSocw65qAgC8YROtAL0LhMAYCLrhDDOI3wbTnZIhFtf1wVRgjAWQywC6ZMx/LG2YkU4VlxxCgOEp1SUiCR68II/PmMUoE3aYt1QgELYkUZRkTEgiEQmjt70UgfOZ2Z1/AhREKJBOuhswPuXRaNxxF5vw7+qqmxVhY15B5qCZpkeIolYmWa/qyY2TSzNfJINuxuwKDQ8x1lAwzs5SV22gt/b3wjZPgsddfBG+Y68YsayFb46yY1Q6rw7xpVW5ctByzq2qzhdfQ7VIcpTK9EmMU4uOXiaA7eKQEHZ28zp8IK7OVae3vgycw/v/q5RZ/j78Y/ojNbFg43gwRkNxGkuPIzGa1WHDb0tVoKGPsZ7LrgOIoWWL+40CwN9lapi3f2laIYyd4nd+0C2CCgZ8a7MdQnLfSQhELuv3FCEX4BA3XT/IE7AV+lDV2JV/RYDVKnAW4bdkFKHcVGmxk2R0OxVEyfAMngUBHMjVMX7av34nd+yZ/JsL0kEwGoNs9hF5PYkGy/rAN3f4iSeZvMkocbroECso8KJ7Sl24zhqhfV1KG25ddAJuV/9FIdEIpjhIlFewC/C2Jlma50wTk4Vl5gJZGAkJAngXpHE7uSHokZEdfQAQSjQQSJ1BUMwBX5XDiFQxecm51Ha5fuMzgo8zc8CiOEmEp8UUq+zUtFQJvv1MFf4D/Y0mFnZHquP0+nBxI7X/yw0EnBoOMXTPSesj2WMx8U20itiunNWLjrKZsozdE+xRH8aZRrup7DzCXUTxOk3xfjtXkeI1mXgKBUBDN/dFcRqlaf8AFD6/4p4rPdPXkTTV5W412LoHL5y7EkvppxBKHAMVRvCXiPQiEuTUbD9Nk3z/eUoSWVh6LpMNQ73Vb+nswEgikPYxuXxH8EV7xTxukwRuwOYIon8X40ImmWW6wTSuvNPgqSG94FEeT8fM3A8Hu9AizNnp6ndh7gEHZZl0KHUODGPB6MjL8YMSKbl8xwgzQzghPozbiLPWgpD61I1yjMjl7XGWuQtyxfA0KHdzRn2i+KY4mIsMA7Iz9HeH3W/E2g7IzxlNPDaUSgB1vfN6QHb0M0I6HydTfl/fU5F012sQEJDmkJImkjU+A4mg8LnKMJsdptIwReGdbJUa8TOiXMaA6aGgk4FcZsLNhQ8ECyIdGAuMRKJvRBbvLTzhxCKydMRvrGueQ0zgEKI7OgxIBvPuAsJcLJoMEDhwuRWcX/zHLIFJNNxWJRHCivwf+YDBrfvKJkayh1XfDlgiqTJ4ZO5kJvGnRCsyqqkmmiinKUhyNnWb/CSDYY4rJz+Ug2ztcOHS0JJddsq88EmgfGsCgdySrHkgG7S5fCeOPskpZf43LQ7NyjZ+WGIFiZwE+sHId44/G4KI4OhuIBF9LEDYt4wQ8Iza8u523IzIOVoMNSvC1BGHnwkZCDvQF+CxCLljrpY/C6kEUVg3pxV1N+Dmvpg7XLWCCyLMng+IoRkOO0eQ4DRFNLFYjOrF5axV8PiaDNOLcxsbkDwVxoq8HcqyWKxsIuOBm/qNc4dZ8P2XTu2EvHP9BY807n0cHL5kzH8sbZuTRA211TXEUmw/JgC2ZsGlZI3DwcCk6GHeUNb5aaLi1vw+eQO7/YeryFSMQYcC/FtZAPn2wWCKoZLxRylNw18r1qC5m+IMApDgSCvKYrDwqS8sqARFGIpBoxiTQ53Gjy52f4wxf2I4e9UAtzcwEHMVelE5lzGiqa2B6eSVuXbo61eqGqkdxFB45fZxmqHnV5GCY70iT05IRp3zBgDpOy6cNBgowHOKNyHzOQb77Zn6j9Gdgw8x5WD19ZvoN6bwFiiPfISCUn//t6nztpOT+9l0VGBrm8w8pwdNwpXwdp41FwuM1DS+SHLhWPrMDNmf20kfkYAia6OIDK9ejxuTHa+YWR8FOwN+qicVoFidOtBShme+sGWq683mcNhakN2yH5D+imY+AiCIRR7T0CcyoqMItS1al35COWzCvOIr4gJG9vJ2W48U7OOTAjt3lOe6V3WWLQCAUwrHermw1n1K7vL2WEjbdV5LnQuRYjZYZApfOWYBlDdMz05gOWzGvOPIdA0J8mDAfa3bzu1Xw+XmlPx/sM91n22A/hn3ayiYfjljQyeSQmZ5qzbcniR8lASQtMwQcNhvuWb0BkiTSjGZOcSSiSMQRLS8EDh8rwal2V176ZqeZIzDk8+LUYH/mGsxgS56gA/1BJofMIFJNN2WxhVA5p13TPurRuYV1DbiqabEeXU/bZ3OKI+9evp2W9tJJvYG+fid27ytLvQHW1ASBY73dCIS0G/wqV/vlij/N+AQKytwonqJNoa53+jcvXonGymq9DyNp/80njgKnAPnQ8kpg0ztVCAR4tJbXSUij8x7PMHrcw2m0kP2q/rAN3f7i7HfEHvJOQHIbSY4jWuYJ1JWU4f0r1ma+YY23aC5xpIKw92h8Sszh3uGjJTjVwaM1Pc62FoOwJ+LI4Gw9rrDkfOaRWnK8UiltxqdFzCWO/MeBYG8qa4N1Mkygf8CBXXt5ay3DWHPSXPvQAAa9IznpK91OJDi7w1eCCCzpNsX6GiVQUO5GcR2P1LI5PS67Ax9acxGcNvMcU5tHHIWHAe/BbK4ftp0kgS1bK+H18T2sJLHltbgn4Edrv77+gzEcdGIwyF3KvC6cLHZeOr0bDj40m0XC0aZXTZuJi2bNy3o/WunAPOKID8tqZc2N+nG8uRgtJ3mjSHMTM4lDWsmEnSwz2T0KRRjjliw3rZe3OYIon8XEj7maJ7naX1FojiSr5hBHoX7AdzRX64f9JEjA7bFj646KBEuzWL4JaPnqfjw2vNofj5A+v19YNYjCaj7/lKvZM9PVfnOII+9+IOzJ1fphP0kQ2LmnHAODjiRqsGi+CMjDsvLArF6N767pdeYm9lt2jWT3iJY7AnJzTW6wGd2ML44kAFsCsWmaJNDe6cKhIyWa9I1OnSEw6PWifUjfQa8jIQf6AjzGNcq6dhR5UTqtxyjD0c045tXU4boFy3Tjb6qOGl8cefcBYX3crEl1EvVcLxy2QHIehUK8TaTleTze1w1/UP//Q+/2FcMf4SUALa+1RH0rqe+Fs5R/tyfKK5Plbl+2Bg1lxr5tbGxxFOwB/CcyuSbYVhYIHDlWgjY+J5IFsplpUq7ty/V9I9hIyI6+gDkCSo0wXxONwWoPoWI2nwvJ1xzPra7D9QuNvXtkbHHEXaN8/ewk1e+w245tOxmYnRS0HBY+0dcNnwF2jWLIGHuUw8WTpa4Kq4ZQWD2YpdbZbCIE3rd8DepLjbt7ZFxxxMdlE1nfmikjb63Jm2s0bRHQ8w21iUgy9khbaywVb2TXSHaPaPkj0FQzBdcuWJo/B7Lcs3HFkfcAEHZnGR+bzxSB7p4C7DtYmqnm2E6GCDT39cCr4xtqE2Hg7lGGFkgemnGWelBS35eHntnlWAJ3rVqP6iJjXqgxpjgKDQKS9JGmKwLvbq+EZ4TBslqZNLffh5MDxvxHyB10YCDIm2taWWvJ+FE2vQv2Qn8yVVg2SwSW1E/D5XMXZqn1/DZrTHHkOwKEjBFAmt/lkdve29oLceQYX1HPLfWJexNhJALJqNbuLUWYb67panrlmRB5LoSmHQIfW3sxipwF2nEoQ54YTxxJskdJ+kjTHYFIBHj73SoEAnzmId+TJ8keJemjkW0wWIDhoPH+UjfynJU09MJZwuv7WprjtTNmY13jHC25lBFfjCeO/M1AkP+zyMjqyEMjza1FONHCq9Z5QH9Olx1DgxjwGjurfChiQYePcW75XmuJ9m8r8KO8sSvR4iyXIwKyayS7R0YzY4mjSAgY2QkgYrR5Ms14gkGL2j2S5JC0/BAIRyI43G2Oxzz7Ai6MhHhLMj8rLblei6f0oaDM2II9OSLaKX1V02LIu2tGMmOJo2An4G810vyYcizHm4vQcpK7R/ma/D6PG11uczzm6Q/b0O1nnFu+1lqi/dqcAZTP7Ey0OMvlmMDUsgq8d9kFOe41u90ZSxwx6WN2V0uOWpeYo81bK7l7lCPeY7sxylMhieLjtf5ESeWvHHeN8sc+0Z7vWL4WU0qN8yCtccQRr+8nuoZ1UY67R/mZJo/fh1aDXt+fiCiv9ednrSXaK3eNEiWV33JL66fjsrkL8utEBns3jjjyHweCvRlEw6bySUBijzZv5YO0uZ6DU0P9GPJ6c91tXvsLRyxoZ2B2Xudgss65a6TZqTnHMYfNhvvWXwarxRjxosYQRyoQe4c+VhC9TJiAxB3JDhItNwTMFIg9ligDs3OzxpLtxe7yo2wGb6glyy1f5Y0UmG0McSRX9+UKP81QBCTv0ZatVfD5mfcoFxPb7/Wgc8icj3l6w3b0+inEc7HOkumjpKEHzhJz7WQmw0drZWdUVOGWJau05lZK/hhDHHkPAuHhlACwkrYJnOpw4fBRY77dozXyLf09GAkEtOZWzvzp8JUgFKEQzxnwOB05ir0onWrsRKRaYZ1JPz50wUUoc+n/aR79i6OwF/DuzeTcsi2NEdi2qwLDw3aNeWUsd/yhII73mjt56mCgAMMhZszWysqW4zQ5VqPpi8CGmXOxevosfTk9jrf6F0eBdiDQpvuJ4AAmJtDT58Te/ca5IqrFue7xuNGj4dxGRa4I5k4LY+8xG0Lh7BD0h63o9nOXMjt0k2u1oNyN4rr+5CqxtCYI1JaU4s4V6zThSzpO6F8cyTtq8p4azdAE9h0sRXcP/1efiUlevqQD5aXnPygromNw2II3d9vR3qOtGyc3bQygviqC7YdseHe/LRMYxm2DOY+yhjbxhi0RVMzqgNUeSrwOS2qKwF0r16O6WN//0dC3OAqPAJL4kWZ4Ap4RG97dXmn4ceZqgAubulFb7UEwaMUrm+rhjnRhzcIQptVGt2WeecuOtu70429mTw3jWFvy7Yytt3BmGKsXhPD823Z0D2RPuPEx2lytwIn7KaoZgKuSMaT5n4nUPZCHaOVBWj2bvsURj9T0vPaS9l0epJWHaWnpE5jWMIQ5M/vgD9jw9OsVo0dqd1wRQHlJBANuC373kiOtjmorInjPxgB++lRyb5elWi8tZ09XDoSt6OLRv9NiPAAAIABJREFUWiZQptQGH5dNCZvmKtUWl+LOlfo+WtO3OPIeAMJuzS0MOpQ9ArJ7JLtItPQITK0fwtxZUXH02xdd8Aajt9QuXRlE04wwgiHgoaejosZmhYrzieV2kxQL8czlBO68yg+7DfjJk4mLo3j1xIez+7dagfDpGKQCB+BL47JdrH6nrxjBCNdYvDnOxvdLp3XDUXT+kW82+mKb2SVw9+oLUVmo33cL9SuOIn5gZHd2Z5eta45AT68Tew8wODvdiTkjjqx4+NkzNwFv2BDE1Jowhkcs2HbQhsWzQqgqi2DTHhvWLw4BFuBXzzsRjgDXrA2gpiKqlES0tHVZ8dK7diWs7rwqgNKi6PcCQaC734qn37LD6Ui+3pZ9NiybG8L0ujAOt1rx5i47VjaFlIiTPnYftWHRrJASYiKU/rzTjkMt0aO8eP1JmRVNISyaGUYgBJQURtDvtuLB56rSRcz6SRJgEHaSwDRefOOsJqyc1qhxLyd2T7/iKNgF+Ft0C56Op07g4OESdHS5Um+ANRETR5Jg87+fsytxs6AxjI3Lg4qOiKGyImDx7GhQrMdrwZAHqCyN4LcvO3HH5X7YbMAjLzjVbs2FS0JYMiekyv3qhehx3Edv8qt2f3p650h+fc+1ydeT+KNVTSFUlkWw73hUHIlf0qe0OeSxYP8JqxJLFSVRQfabPzmUwIvXn8MOfOh6P97ea8OeozY0Tgnj4hUh/McT1VwlOSRgsYVQMbMTFluWriLmcCzsKkpgenklbl26Wrc49CuOfEeA0IBuwdPx1AkEAla8u70CgWDygb6p92qsmjFxJKOSnR45OvMHgd4BKw40W3HkZJTt3dcGUFgQwWOvOtAzGA2ElsBt2W2Ra/Vv7T5z/PSRG6PHaJt227DnmO08cZRqPelz1fyQCsiOiSP5s3uv90OOwn72lHP0ev8HrwlArv2LWPL5LXH9PNllxfuuCGDEZ8FTb9hVrNXaRSH8cVsFwrJNRssJAb6flhPMOe9E3lorsOszR51OxVEE8GwHkEDwQ86XAzvMBYGOrgIcPFyai64M2ceZnSMLHnvNDq/fokTSWLvr6gCKCyP48R/PxA3dfHEAdZURJYxEIMXslksCkGDqE+1WvLjFHhVHwGhAdqr1JhRH1/lR4MQ5vsnOl9xsO9Vthc0WScjP2y8LqF0psZYOK158x44eXyFGQukFpBty4WRhUM6SEZQ08NHwLKDNe5PXLViKeTVT8u5HKg7oUxyFBgHf4VTGyzoGIrD/UCm6upn7KJUpjYkj2TH55fMTi4DxxNEtFwdQWxlRV/QlxihmsaM1ERjPbz5fHKVaLxlxJLtLssskO19lRZGE/JT2L1oWxKJZ0SMdOSb8wVPF6A/o/wmEVNZGLutYrGGUz+xkTqNcQs9hX4unTMUV8xblsMfMdaVPcRQ4CQQ6MkeBLemSgD9gxdYdFZBjNlpyBGJX+VMRRxuWhlTMz9nxRdL7jRuCaKgJY/NeG3YdOf9YLdV6yYij2y4NoLo8onauptZE4vrZ0SuxSiG8sdOOYlcEt1wSVMdyb+xy4KX95clBZemkCfA4LWlkuqogb6zJW2t6NH2KI2bF1uNay4rPsnMkO0i05AjMn9uDKbVudbtrsjxE954+unr0ZQf6h6MxOBJXdM910fiiZzbZ1S01CYyWwGa5xfaL55zqun0sJujld+3qVpsEPN9xZfL1dhyyYd3iIOY3htHcbsULW6K7VTHfZPdKdrHk5todVwYw7LHgty85EvJzWk0YV68L4pfPO+EPQB3JydHcH151YH9XCa/0J7eskipdUOaBiCOasQno9Uq//sRRJAiM7DT2auLokiJw+GgJTnXw9lqi0JYt7kRFmXe0uM8PbN5nx8HmMztwInYkFqei9Mx1/C377CogWkyu919/YRAuZwRd/RaUnD6BevINu7o9JhbLmSS/lmOuV7baU6onsVBN08NQOY0iUH7KTk9MHEmqgGDIggJnBINuC5543aHSByTi5/TaMK67MKjirXoGLCgtAk52WfDadjv6Ay54QonnaEqUP8sBVkcQ5Y2dsFgZN2r09XDZ3IVYWj9Nd8PUnzgK9QO+o7oDTYezS0CO19wefd6KyC6Z8Vsf9nnRNpj+w54iniQIu7PXom56jbXy4gh8AQu8Yx5XT7Xe2e3HxJHsfIkP/UOWCZNATtSfiECrBZALNbLz1N1/ZgwSkN3HuKOsLM/SqT1wFJ8R6FnphI1qgkBT7RRcO3+pJnxJxgn9iSN/KxDsTGaMLGsCAoNDDuzYzRiRRKe6a3gIfSP6zi4fE0dn36RLdPyJlAtFLOjw8cg2EVbJlCmsGkRh9VAyVVhWxwRKClz4yJqNuhuB/sQRnwzR3SLLlcMnTxXi6HH9pqvPFSfpp7mvZ/TJkFz2m8m+JFWA5Gd69BWH2jXKhnX4ShCKMOA/U2xlt0h2jWjmInDvBReh3KWv2586E0eS32ibuVYVR5sUAcl9JDmQaBMTiEQiONSt39uechT2/isD6qkPMUleufOwTX0ybXKsxnxHmaFqtYVQ1tjFa/uZwamrVq6ZvwTza+t15bO+xFF4GPAe1BVgOptbAnJLatuuCrjdjD+aiLwn4EdrP5PuJbIy3UEnBoIM9k+EVbwyjDOKR8i431/eMAOXzJmvqwHqSxxJrJHEHNFIYBICw247tu+qOOf1dgI7Q6DP40aXmzEfiawJf9iGbj+PahNhNVmZopoBuCqH022G9XVKYEppOe5YvkZX3utLHPmPA0H+j1dXKyxPznZ2F+AA8x+NS//UYD+GfLwplMjSlJ3IU76yRIqyzAQEmM+IS8NqseCzF12pKxD6EkfevUCYf6nraoXl0dkTLUVobi3Kowfa7Pp4bzf8odOJgLTpoqa86vIVIxDJfDyTpgaZJWfsLh/KZnRnqXU2qycCd65ch9pi/dz+1JE4Cp9+bFZPy4G+5pvAgcOl6GSA9ug0hCMRHNZxMHY+1lNfwIURJoNMGr3VHkLZ9C5YHeO8aJx0a6ygdwJXNi3GoroG3QxDP+Io7AbkGj+NBJIksHNPOQYG+cK6YPMGAmju51XqZJbQcNCJQQZlJ4NMlS2d3g1HoS/peqxgTAIrpjbi4tlNuhmcfsRRsBvwN+sGLB3VDgG/3woRSCNeHo30ez3oHBrUzuTowBNv2I5eP49nk5mq4vo+FJR6kqnCsgYnMKOiCrcsWaWbUepHHDEztm4WlRYdlRtsIpBCoewkC9TimMfzqXN4EP0j/EcrmflipuxkaAG8mZYcL7OULnYW4KNrL9bNcPUjjnyHgRD/x6ublaVBR/v6ndi9z9w3j1r7++AJ8Kgj2eXZ7i1FGOYW1okwc1UOoaiGf08nwsqMZT6x/lK47PoIcdCPOBrZDUTGvF5pxtXFMadFwOxX/I/2dCEYZoBssouo21cMP2+sTYqtoMyN4inpP2ac7NywvH4IvG/5GtSX6uMNTJ2II95U08/y176np9pdOHysRPuOZthDvT8bkmEcSTXHG2uT43KWjKCkgTnoklpUJix8ddNiLNDJjTV9iCPJbSQ5jmgkkCECrW2FOHbCXJmPfcEgTvQx50wqS2goWAD50M4nwMdkuSoSJbB2xmysa5yTaPG8ltOHOAoNAL4jeQXFzo1HQBJESqJIs5jb58PJwT6zDDej4/SEHOgP6OtV8YwCmKAxR5EPpdMouHPB2gh9LKitx9Xzl+hiKPoQR8EuwN+iC6B0Ul8EzJRFW26pyW01WvIE+Mba+czshSKMemCxRJIHyhqmJNBQVoHbl12gi7HrQxwFTgKBDl0ApZP6I2AWgSSPzcqjs7TkCYQiVnT4zBenNhEpCqPk1xBrAKUFLnx4zUZdoNCHOPIdA0I8DtDFitKpk2Y4YtP6g7MHdr02unoWLLtUUytJ9kZOec2dBiI2IXKUVjKVO0aaWqA6cUaSYdy/8SpdeKsPceQ9CISHdQGUTuqXQMvJQhxvNm6Qdkt/D0YCAc1O0OO//L+jvt16999rzk/mOgIYfK25Zak7hyQRpCSE1LrpQxyN7AEiTFyn9cVkBP/a2gtx5JgxBdKxnm4EwkHNTpPWxVGXrxgBE+c64nV9zf7o6MqxO1esQ21JqeZ91ok42gFEmLhO86vJIA52dLpw8Ijx4ksOdXdAch1p1bR8rCbMevxF8IXtWsWXVb+Y4DGreE3V+HsWr8TMymrNj1kH4ogJIDW/igzoYE+vE/sOlkHDWiIp6kwAmRSucQubNREknwRJf+2whTMErmpajIU6SASpfXEkT4bI0yE0EsgxgcEhB/YfLIXPb81xz5nvLhgO42hPZ+YbNlGLAwEX3CGniUbMR2RNNdk5GuzG2U1YObUxR72l3o32xVF4BPDuS32ErEkCaRDwem3Yf6gUQ8P6Pk7RQ3ZsrR+rmS1LdnF9HwpKPWn89LAqCZxPYM30WVg/c67m0ehAHA0DcluNRgJ5IhAOW3DgUCm6e/W7a+AJ+NHar+23r7QekO0OOjEQdOVpFeauW6s9BBFGjkJegskddfP0tKxhOi6ds0DzA9a+OOLTIZpfRGZxUN5ikzfZ9Gh6eDpE6+LIDE+I2F0+lNT3wergBRg9/pzrwWe9PCGiA3HUB0gSSBoJaIDAqQ4XDh/V3022IZ8XkgRSy6b1Y7WRkB19AeO+xVdQ5kHxFCbb1fLPiBF8m11VixsXLdf8ULQvjoI9gP+E5kHSQfMQGBh04ODhEnh9Nt0MesDrQccQ31VLZ8K8YTt6/cYUR0U1A3BVMtFuOuuDdRMjMKOiCrcsWZVY4TyW0oE44qOzeVwf7HoCAoGAFYeOlKCnTx9xSHx0Nv2lbMTHZ622EIqn9KvM1zQSyAUBvTw+q31xJA/OysOzNBLQIAG9PForD87Kw7NaNq0fqxlNHIkgKq7rhwRg00ggVwTqSsrw/hVrc9Vdyv3oQBy1A4G2lAfIiiSQbQK9fU4Vh6TlfEg9Hjd6NC6OtB6QHQhb0eXXX7zZeOu/sGoQhdXaFsvZ/rll+/khUFNcgg+sXJ+fzpPoVQfi6BQQOJXEkFiUBHJPQI7ZDh8rRnePNh9U7PEMo8et7ZgSiqPsr1urI4ji2gEeo2UfNXuYgEBVUTE+uOpCzfOhONL8FNFBPRHQ6sO1ehBHWj9W0/vOkdxGK6rth8Wq3ff19PSzTl9TI1BZVIy7KY5Sg3dOLdk14s5RBkCyiVwRcHvsOHq8GP0Djlx1GbcfPYijuIPIcwG9iiOLNYyi2gGIOKKRQL4JVBYW4+7V3DlKfx4ojtJnyBbyQqDlZCGONxfnpe+xnVIcpT8NehRHzpIRJYwYdJ3+/LOFzBDgsVpmOAIBBmRnCiXbyT0B2UWSzNp9/fndRdJDQDaP1TK3Pi22EIpqBrlblDmkbClDBKqLS3AXA7IzQJNX+TMAkU3km0Bbu0vtIoVClry4ooer/FoPyPaHrejWwW21gnI3iqoHYbGF87LW2CkJTEagtqQUd65Yp3lI2g/IDnYC/lbNg6SDJBCPgN9vxfHmInR05f7x0j6PB11ubWfI1r44sqHbr41j0vHWmq3Ar3aLHEV8MDbezyK/nz8C9aXleN/yNflzIMGedSCOugF/c4LDYTES0D6Bvn4nJHnk0LA9Z872ez3o1PjzIVo/VvOF7ejR4vMhlojaKeLzHzn7cWJHaRCYXl6JW5euTqOF3FTVgTjqBfzHc0ODvZBADgnItX8RScFg9o/aBr1etA9p++HZHKJPqSstvq0mR2iFVUMMuE5pRlkpHwRmVdXgpkUr8tF1Un1qXxyF+gHf0aQGxcIkoBcCEoPU3FqE1rbCrLo87POibZDiKB3IIyEH+gLZnadE/ZOnP0QU2V3+RKuwHAlogkBTzRRcu2CpJnyZzAkdiKMhwHdI8yDpIAmkQ2DEa4Nc/e/ozE48kifgQ2t/XzouZr2u1o/V3EEHBoL5FUcihlyVQ3CW8KHYrC9IdpAVAkvqp+HyuQuz0nYmG9W+OAp7AO/+TI6ZbZGAZglIHJLsImX6GRJvMIDmvh7Njlsc03pA9nDQicFgdsRrvImxOQMqpoiJHOOR4ve1TmDVtJm4aNY8rbsJ7YujiA8Y2aN5kHSQBDJJYHDIgZMiknqdGWk2EArhWG9XRtrKViNaF0eDgQIMh3L7dh5FUbZWG9vNF4ELZ87FBdNn5av7hPvVgTgKASM7Eh4QC5KAkQgMDdlxsr0QXd3p/aMcjkRwuLtD02i0fqzWH3DBE8qMWI03EXIt31Xh1s1OkbunFwPtnSibUoeSmqp4w+P3TUxAjtTkaE3rpn1xJAQ92wDwsUStLyb6lz0Ckmn7VLsLpzpSP9Y51NWBCH+OUp6kXn8R5MZaNs1R6ENBhRvy7Ee2baizG7ueeg7yNWblDVOw4tYbUVhelnD3Ox5/GiMDgwiHQqotqV+/sCnh+ixoLgI3LFyOOdW1mh+0PsTRyG4gwlsZml9NdDDrBCSRpAik9k4X5NfJ2NGeLgTDoWSqsOxZBLp9xfBHbFlh4iz1wFXuhr0w93/PvfmTX2Coqxs1c2bigvffltT4uo+ewLu/fQzXfPnzCPp86tcLrrwUVY3Tk2onE4VD/oASaSW11ZloLm4bue4vrkM6KXD7sjVoKCvXvLf6EEcSkC2B2TQSIIFRApJpu6OzAAODib3bdqKvB75gQLMEtX6s1uErQSiSnCCdDLY8BisB1pKrKJ8Pw+5++gWc3LUXczasQ9OlG5JaHwdffQPHNr2D6/76gaTqZaPwrqeeV8d6M9eszEbz57WZ6/5yMqgcdPKhCy5CmSu/tz4TGaY+xJHvCBAaSGQ8LEMCpiMgN9xEKHV2FUz6dlvbQB+G/dp9WkLrAdlt3lIA6SfsdBR5lShylmb/6CyRH4Y9z7yI1p17MHfjesy7+MJzqkQiEVgs0TGf/etYoW2P/hGdh4+OK44i4TAsVitiX89uODDihaMwtSNiOb4Tn6TtmJ3aux87//gcFl512XniaDI/EuEj4xaLcZBfT9ZfQm2myGa8sSfSn5bKfHrDFbCfNXda8u1sX/QhjvwtQFDbN220OsH0yzwE5O/wzm4XuroK0Ddw/m5S5/Ag+ke0uwOrZXEUiljQ4RNxlJrZHEHI0ZmzbATyay3ZWHHkc3vQ/M52nNp3ALXzZsNisaJ1526EgyHMv3wjZq1djeGuHux88lkMd/cq8VNaV6OGtOzGa9Hb3IqWHbtQN28OPH396Dh4RO1IzV6/Bvv/9BrcfX0I+vwYbO/EwqsuRePqM9mS2/cdxNG3tmC4pxc2hwNzL1qHWeuiT03IMdaup59XfvhHRuAdHMLq992McCiMzb/8nfLDXlAAZ1Ehlt98Pfpb287zY8bKpehrPYWRwUEsvuYKTF26CPteeAVte/YjEgnj0k9/FM6iItVff1s79r3wMmx2Bzz9/Sivn4JF11wO79Dwef3Nv2wjDv9506TtKlG150BKbCYae1n9FC0tpbi+FDoc+Pi6S+OW00IBfYijQAcQOKkFXvSBBHRBwOu1oavHqfIlDbujQcS9Hje63UOa9V/Lx2r+sBXd/pKk2FlsIZWsUXaIJNBaqzZWHAW8PiVQjm9+V7kswqa0tga7nn4BsuNz5QOfgcMVvT351kO/UiIndqwmokmO2rqOHFPfn73+AnQfO4HpK5aquiIgLvrY3Sitq8XuZ17EyZ17cM1XPg+rzaZ+Ld/f+Il7EQoEsf2xp9B/8hSWXHcVpq9cisOvv4X2/Ydw8Sc/rNp+55HfY85F61R8U2wnZ9G1V6Bx1XIl3ibyQ8Te3udfUkInJsw2/+J36Gs9icvu/wRcpSXobTmJLb/8HS788AdQ3lCPWGxVXdNcrLr9Pef1J/60bNs1abtBry9lNpONXavrajy/aktKceeKdbpwWR/iKNQH+KI/bDQSIIHkCMhNt55eJ462hXCk3Z1cZZZWBEZCdvQFojsKk5kSRMVeJYrkiQ892HjHarIj9MaPH0b9ovlYccsNahj7XnwFze/uwPp770TFtAb1Z2PFkfxZTFjIjTW5uRazrsNHcXzzVqx6381qh2f/S6/hxJZt2PBREUs1ePE/vwPZCZnSNFdVkR0oEVnlU+tx4Yc+gF1PPqd2eJbddK3a8Rk41Q67swDF1ZWjYmXxtVdixqpl0fqnBc5YP2R3ascTz5wjjrb/4Um1wxUTR69+98dq5yomxKS9Q6++ibKGOkyZP2/c/hJpNxU2ZVNqJx27HtZYzEe5pSa31fRg+hBHYTfgPaAHnvSRBDRLQB6f3XS0DZ7hIniGijHi1n5QpFZgTpYd2+YMQuKIRAw5irS7QzQRy/HEkeQt+vOPHkbDovlYflocHXnjbbWzs/aD7xu9jTaeOBrs6MRbP/uV2jWaf/nF53Qrx0PN23ai4+BhtZMkx27r7nk/nIUu1d+MlctQPbvxnDoOl0v1N9TZhbceekQdn4kgWnrDNaMiLbZztPi6K1UbYhP5EU/EWO02vPxfP0DjBSuw6OrLx8U2Xn/x2pUdqVTYVE6fOunYtfIzkogfK6c2YuNsfaR50Ic4igSBkZ2JsGcZEiCBCQhIluw3jp95pzAcskaFkrsII8OFCAYSu/WWLcBaPlYbCLjgPp0A0mKJwF7kU0JIRJGIIz1brsTRyOCQ2o2SnZelN1yNY2+/i0OvvanEkQQ7v/3fv8GcC9ei6bKLJsQpcUay6yPHbWKyqyW7WzGxEjuCS0cchfx+JdRKaqrVEd94Nl5/6YijydiIOBKbaOx6WnuXzV2ApfW5T/OQCiN9iCMZmYgjEUk0EiCBlAm8cewQAhPkOvL7nPC6CzHiccHrEbGU3YSHYweh1YBsizWCQZsNQWcYjkI/7BqOH0plYeRKHP35hz+Hu7cP1/7VXygxdOTNzSqOSMSRCJGXvvk92JwOXPG5T6qvYnI7a9vv/4jlN9+Ao29uVsJJ4pMk9kiST0qyyks/87FxY4Di7RwtuOKS0WDvs4/VCoqL8PxXv6X6l2O14qrKUV92P/W82kkbG+MkBWLiaKJ2J9s5moyNiKMDL70+4dhTmfN81bllySrMqNBHBnX9iCM5VpPjNRoJkEDKBLa2nsCgL7Er5AG/A94RF3wilkYK4PMWAJH0r7JP5LxWxJHDGUBBoRcuyVZdJF+9ODhcg0A4OwkgU57MDFXc9PCvMdDWjikL5mHlbTepVuWm19u/+C1q587G6jtuUX+297mX0LJ9F1bdfjPqmuaoP3v5Wz+E3+PBFV/45Ogtr54TLSpYumHxQiy/+bpRL1/5zo/gG3aroyoRHNsff1oljpQba1UzZ+DIG5vRceCQCohuuvQiFZTdsn2nCpqWgO53fv0H1C9oUsHZYpK80llShDV3vhc9x5vV9yWR5aJrrsBwVzdsTue4fshtM4kpEmG19MZr4O7pU4HUYhKzJO3vf/FVNG/dATlik/xPcpTXumM3Fl19GaYsaBq3P4mXiteuxFGlwkbE0URjz9AyyEkzH16zEaUFqaVwyImDZ3WiH3HkPwEEtf2qeK4nj/2RQLIE9neeQvtQ6jnDRCD5vSKUnJCdJr/XiVAwMztMuT5Ws1jDcBb4ox+XHwUun/pYbeFzsIYjFuwbqksWtebLS1bsvc+/rIRQzCS2Z94lGyC7SbLLI7mE5Pq+XG/f8+yL6hq9q6wUS66/Cife2Y7uo8dVVQmaliv+sqsj199FgEhdiVla9p6oQGrbvU/dUBOhUT1zBhovWKlupFmsFqx6782omN4AyZskAiJmcpVf/BF797ePK1EyZf5ctfMkQmvpTdcqkRP0+/Hqd3+ixJaIq7kbL8SRNzaN64cSes+/pG6XiYkolLimzkNHlb9yA85e4FQB6K3bd6syMhaJZ5q+fIn6/dj+JEhduEzWbll9nTpGTIXNiXe3Tzh2zS+00w46bDZ86sLxY7i0OAb9iCNe59fi+qFPOiPQ0t+LIz2dGfU6FLIh4HNAdprUJ+BA0G9XMUy5PpobOzCrLQSHIwi7Mwi7IwDZFZKPCCJ7gvmGRkIOHHXr4yggoxObhcZEXIk4ih2bhQIBWO32cxIsBrxeJSCKKyvVzk3M5IhNxJfE3thdBbA7z30EWNqVeom+Cyf9WK025YvkXRJBNNakT2mzqOL85y4m6i+RdsdDOxmbeGPPwlRlvMm6kjK8f8XajLebrQb1I45Cg4DvcLY4sF0SMAUByXW081RLTscaDNoRCtggIioUjH4Ny69DVoTDVkTka8SCiPxavkpCYvn6/7d3HtBRFV8Yv6SHQCD03nvvRQQBEUVQURFBEBUboNh773/svYuKiiIqKnaxgTTpvQZISAKBJKT39j/fLG/ZLNuz2ex7+805OUDyZubOb2bzPu69M2NhJQ5pRiK0+SuoTIKCyiUIfwbjpVkmwcGlpq8Q0xfED56vbEkvipQjBa5fxFrZ/lifBIxIoGujZjK6Y1fdDE0/4qi8WCTf5AZlIQES8IxAYUmJrIn3z/9krPnTFMJAGXq2Ka/EH0pyQW1JK3J+xpE/2EobSMBfCZzZtqP0blbxmAZ/tRV26UccwVqII4gkFhIgAY8JrI7bL0WlpR7Xr6qKLz24yNz0HU9Pqapu3G43Li9GcktOD7m43RArkEAAE7ioRz9pUce0808PRV/iCGE1hNdYSIAEPCaAsBrCa/5W/FUc7cluKKXlpy459TdutIcE9EDgusEjJDykes9Sc4eTvsRR8RGR4mR3xsdnSYAErAgcOpEi8en+t/PTH8NqhWXBEptjulSVhQRIwDMCdSNryrR+pl2Hein6EkelGSKFB/XClnaSgF8SwOWzO5J5kbMrk4OTsRPzT9+p5EpdPkMCJGAi0KlhEzmnk+kYBL0UfYkjJmXrZV3RTj8m4M9J2f6GjcnY/jYjtEePBIa37SS9mrXUlen6EkdAm79TpFx/lzvqalV40diysjJZv2mfdOvcSmrXtr/jp7i4RLZsPyixcS4UAAAgAElEQVQD+3XyuHdvtOFx5zqr+F/8Ackv8a/NDf4YVsP5RjjniMU+gfLycnWQZO3GDU87e0hv3DCWlNhDgis7QiP1cZKzHhhP6jVQGtfW13EY+hNHRXEiJSf0sB7csvGv5VvkvQW/Sl5egaoXEREmV14+Wi4YN0QSElPkfy99KYlHUs1tDh3YVe6/83K3+qiOh//bsEeefmGRnDOqn8y90XQNgXV59uXFsnbDHiktLZOlix7zyExvtOFRxzqttPv4UTlWiZOyq2LY/paQbdSTsb05d3HrNsn+f1erk7Mt7yHzZh++bAunZOMuN5yE3X3cGF92bdi+QoKC5Maho3Q3Pv2Jo5JUkaLDugPtisEQQTfd9aZ69H+PXiPdu7auUG3KzHlKPF1w3mC5/upxrjRZ7c+knsiSeS8tlimXjpABfW17hXDo33VzX5YT6dny7cJHPLLZG2141LFOKx3JypB9Kf61ucHfxFFOSZjE5+ln63F1LUVc+XE89qAhxBFOw8aVJri2BPfKebPgOhZcwxIaEe7NZv2+LVw0iwtn9Vb0J47KCkQKdumNs0v24gV/0VST5+Tz+fdKrajICvXueWS+7NmXILfceJGMGaW/xeYIwh0PvCeH4pM9Fkdo2xttuDRRBngor6hQ1iUc8quR+FtY7XhhLUkpjPIrRv5oDO4gO7xxqyHEUVXxxVUjK979WPpfNlFqNQisq2gGtWonA1t6V2hW1TxZtqs/cQTr83eIlBf5go/P+7hwikkcLfrofqkZWfF/GPc/9pHs3BMvt82eKKPP6uMz2xCHz80rOE2swQB11YPgWocaKiwWHGz7PBi0gWesS1FxiYSFhtgVNo761tpy1oYzUAWFRRJh414lZ/X0/vM18Qek0M/yjvyJaVxujOSW8vBHZ3NiLY7sfdadtYN6KPg9ATGBy15Nv2Nsf1/7Ge5F87Y3xpMxaHUsbdfGvP2n39XFu8OuvfI0cYR6jsaA++eCQ/Wb93Zxz/7SLLqus+n3u5/rUxwZNO8Iq8MdcYQ8pY8WLpPComJ544U5EhoSIm+8t1S274qTxo1i5PXnZqtQFZ5b9s9mueSCYbJ3f6KsXLtTIiPC5Zrp50iHds3k0y/+lI1b9ktkZLjccfMl0rdXe7VQU1IzZf6nvwmSqg8cOioFhcXy8N1TpUunlurfP/++Xlb9t0tuuOo8Wbl2l2zeFivh4WHqGYQEs3PyZdXanfLXiq1SL6a23Hf7ZPMH4Mdf/5Pvf14rdaKjJD0jWzIzc6W0rMzsOXLUt9aIszbwS+eTL/6U1et2ydHkE4rJnOsmmMcXd/iYfPTZ7xIaGiJHjqYpjvPfuN3vPqRVZZA/5h1V1VjdbTfQ8o1Ki4pl0zdLBaEfiJM2g/pJ6wF91aWr23/8TfIzs6T3ReOkTtMmp6HUxFGvC86Vw5u3q+TskPBw6XvpBVKvZXOzwMGN9Mf2xkpeeoa6HLb7uWdL/batJDfthCRt3yUJW3ZI1zFnyaH/NkpOapr0nDBWclLSTvv+oCsmqfp7/loh5WXlknXsuEBA9Lv0QqnbvKkU5uRK0o5dkrRtl7Qd3F8yko5K8t79Klm886gzJbpxY9m/YpWkHIyTkLBw6TXhXGUHLoxN3rNfiZjwWlHSZ+J4p7aj74RN2yR5b6yyHfVTD8UrMdPv0gskpmVzNZ59/6xUbaFdfA29aqq6QNfeGPBsdkqq7P37XwkODpHc9HQpLS6Rs2bPdHcpV+vzIUHBcuPQkdVqg6ed61MclaSJFMV7Oma/rqeJo9vmXCyRERX/1/rx58vUS97Sc/TMi4tk7fo98vbLc6V50/rqf1mXTH9SataMkIXv36NCVRAIED/w0My6drx67vFnP1f5S61aNJJpk0fJ8dQM+XjhMiViNIGAMN7+A0my5LNHBE6fmXNeUjvOXn12lhw7ni6vvvO97NgVp/qadc35UlxSIq+/u1SJkPdfu1XZumbdboHd2IX28D1XKPZfffevfP7V3/LOy3PVs7Dx1nvfUV4nLefIUd+utvH8q18rwXXvbZPlYNxRefDJBWrMEJIY950Pvi+dO7aQG64eJ/n5hXLNTS/Log/v8+v14U3jkrMzZc/xo95sslJt+VNYLbskXA7n6e9/u5WZgMLcPFn+1nzVxNm3zZbg0BD1952//KF2bnUaeabN5jVxFFG7lnQeNVxKS0pkx8/LlIAZMesaVWfr0l+UNwiCA4Ji/RdLpKSwUIZdO12JmR2//KHEAvpBMvSxfQek9YA+SlhYfx8ibM+fKyTz6DEZe/dc1T7sRt0zrpkm2cdTZd/yVZJ6ME6CQoKl29jREhVTVzZ+vVT1WatBfekwfIgUZGbL3n9WKrEC0QHRhn4hZJBv1G+SaQOJI9shgnb89LucSEhSgrDrOSOlrLRUMbMcPwTmkZ17ZPgNV0nNGNO6+u+zxXbHgJ+v/WSR1GnWRLqOGSklRUWy/K0P5ezbZlVmin1et029BjK+a2+f9+uNDvUpjgx83pEmjvr17iAhIcEV5njbzkNSUFBUQRy99u738sffm83iCBWQuA2hAXGEAu8OdnNBBEw4b7D63pvv/yC//blRnnviWuUJQoF42L7zkHnH2Bdf/6O8R7fMukiFzJDTczjxuFnA/PDLWnl/wa/q52NGmnKgZt/+uiQdTTO3kZWdJ9Ovf84sjjKzcuXq2S9K186t5JlHrjaP79qbKyZkO+rblTY0wXXu2f2VGETBeGHblEvPkisuGyVXzXpReYueemiG8qDBwzZqRB8lBAOh+Nt5R/6UkB2o5xvt/XulxK3bqEQOvEcQNH+++o6ced0MgfixVTRxNGTG5WbP0sr3P1FeqHPvvVWJldUfLZQWfXpIVIwpwT1x6w718/bDBkuHM4cIvEoH16xXO8QgjrRi7/sHVv2nvFk9zj9H2bhmwReSk3rCLJaO7d0vW777WQmLVv1NL+edv/0piVt2yODpk5WHCWX9F9/IicOJyk6Uovx8+fu198ziyBXb4zdskT1/Lle2NO/ZTbVjOX782yyObrxaatY1HSrqbAz/vPmB8hYNnHKxRDdprDxazXro51Z7jFGP5xtpa0+f4gjWF+wRKcsz3DvMnbAaBu+KOIJnCR6mG685X8afO0gxW/TNcuW9eeGp66VTB5Pr+7lXv5KVa3bKVwselPBwU4w7NS1TlvywWmIPHpHDiSnK86Jtt0dY672Pf6kg1rSkce2Z7Ow8mWYhjtZt3CtPPf+FzJhytkyaONw8f0p4JRyXrz99yPw9e3270oZmG44PsE5sb96svvIcQSxBJKLAszX7ugnSoJ6+zuKo7AdgY2KcZBeajo+o7uJP4ig2p74Ulpk8J4FUEFr6+/X3lcfl7FtnKU9KwqatMvCKSXYxaOJo6NVXSHTjhuq59Z9/rbwp8OwkbN4ueAbCxzo3KKpejPLkHFq7QXl7Bk65ROq1PnVYoL3vq1dAVrYcWrdRspKPK2EEr5Amco7vPyCbl/yoPDmt+pnEEcRI7Mq1Yinitn7/swqFjbnjJuUpK84vkL9ee9csjpBo7sx27Zme48eaxQu8QgjnafbYEkfOxgAhB0GHAk9Wt3NH2xWo/rpGr+g3RGIi9bmpQb/iyKD3rPlKHH39/Ur55Is/HIojHN4IUTX72gkydnQ/0RLCKyOOfvptnbz70c/K0wSPk1asxZGjvl1pQxN/Tz9ytfTs1sbu746du+Nl3suLBd4ohB1ffW622dPkr79wvGnXoROpEp9+6vwsb7btblv+ElYrLA2R2FyTtzEQy54/lkv8xi0qHJW8e6+0HthPGnVs57E4gkcIomTg1EulXqsWNttxVxylHDikxE+3saOkRe8esm7h15KemORQHGl9uCOONEHlyHZ3xBHCjAi3oTgbA55JT0hSHrCivDwlWBE2hKDUQ4EogjjSa9GvOCrLFSnYq1fudu32VBy99txsadOqsWrXOqxmy3PkTBwVFRUrj0/H9s3lxaevV+1ae4U88Rxt3XFQHn7qE5WI/el7d5s53Hbfu5KYlKI8R5q3yV7frrShjblHtzYVwncIE76/4Bd54M4p8u6HP8uNM89XIUMIxW9/XC3jzhmgxGCglKyCfNmUZMz8PU/nMK2opiCsFqilKC9f/n79PfUyRk7NqLk32NxpqvFx5jnSRACSsy09UPD87P5jufS9ZIJbniPNu1OnaWMZMmOKMsPaU2PLc+SJONLacWS7O+JIyzlyZQy7l/2jPF8IG+5bvlqFO1v27alEqx5Kn2atZFjbjnow1aaN+hVHGI7BtvTn5hbI1GvnqYl66ZkbVB6MZZlzxxvqlGyEoxCWQvln5TZ56Y0l6oBF5NKsWL1dlv68Vv0MidNtWzeR3//apHaxXXXFGLn0QlNSJZKklyxdJQ/dPVUG9e+svvfoM5/K5m0HlGjBDjXk5CB36YkHZ8ixY+kqhIfyv8eukcYN68pvf26SL5csVwJj/FhTuO76W15VydqLP35AnfKNHKWb73pLjQVjQsL4dXNfUblMOMwSNsclHJcHn/jYJMBuvUw6dmgu1899xW7fjRrUkfse+8hhG/37dpQbbnlVeYR692gn543pL4lH0uS3PzbI4w9cKS1bNJRJVz6lGDVv1kBw9cilVz4lM688VyaO19ft0ZX97bMmPlaQf8RiIhCXFyO5JYG9hX/373/L4c3b1G4ve4nY2nrRQlP9L7tIGrQzeWm1nJuz5lwr4VE15Z835yvvR/3WLaVFn54q3yhxy3bpP/litbUdSdBIvrYMTaEdW99HAjfycbDVf8DlF0t+RqZK6EYZNG2SREZHqx1jO3/9UzqdNUzaDhmgfqa1hV1kDTuYPGEbFn8raYcOy6i516sDGrFLbtX8zyS6SSO1owzCxJntsf+ukQOr11UI4a145yOVEzXm9jkSHBYqWi4X7KnTvKlqd8OiJQ7H8O/7C8yeIiR5L3vhDek8eri0GdhPFx/Vi3r0kxZ19OHlsgVU3+KoKEGkJEUXC8WZkRA58z/5Tb3MUbAr7IrLRirRkXQkVd6a/5NKlkaBYDljcDe5+5ZJUlpaKrfd/57EHz6mwkIQTsgbqhFUQ0ac0UPatm4sr779vWoXbWJXWUZmjiz4/A/B+UAxdWvLbXMmyrYdh+S7n1YrLwo8NnfcdLEs/WWt/LJsg+oP1380a1JPPvzsd2nYoI5MnTRS5RshQRxeIBwBsGHTPvnh1/+UjfDYXDxhqCz4/E8lkFBwcCUOsMTOuMee+cx8HUrrVo0lIyNHiSmE2y46f4h8tPB3u33Pe2ymlEu50zZwOveDTyxQRwWggM/dt06SwQO6qH/DwwYROGJYT0lJyZBatSLljpsusXtWk7M51OvP96UckyNZ6dVuvj+E1UrKgmRvjilvJpALdm79+94CtYsrItq+F+3wpq1q5xhe9niu78XjJWn7bsH3UeDdGTDlEinMzpX1i75RO9NQ4JXqfeH5KlwHYXFwzTp1BQl2fLUfNkgJAHvfR/1dv/+lcpkgkJDAjR1g2PYOG5Dgve+fVUqMYQdbt3NGCXbi7Vu+UvWB3Wk9zx8raYcTBNefwHbY2bJvL/VvCCSU5r26S49xYyQ3Ld2u7fCKYTcbjkKAuMKxAPgewpIo8Dj1u+wi1ebaT75U30P+UJ+Lx6skbntjGDztMln14UIpLy+Tpl07S35WloRFREjPCeeaz3/y5/VZMzRMrhl0KqfUn221Z5u+xVFplkhhrB65e93mtBNZahs+zijJyy887QBJTzvMyc1XbQWdPJANW95xHpI3CgQb7I2uXVOJN4gsy+JK387aQHvwUiFM2Kxp/QrhAXiLgoJqqJ83bFA34ESRxvpEXq5sO5rgjSmtVBv+kJCdXhQpRwoCKynf1qTh3KEj23c5TMT2ZLIRSsNWf4gZW4fCutNmcUGhhISHmdvBdnecZVRVpbK2Q0CVFBcrT5pWHI0B3iIwys/Klsjo2roQRdq4ujduLiM7mP4Tqteib3EE6vnbRMoZEtDrAqTd/kFgVdx+KS4trVZj/EEcxefVlZwS74j/aoXpQecIeZfhPwyhIYKwUI/zxqjDEVlIwF0CE7r1kdYx+t7UoH9xhEtocRktCwmQgMcEcAktLqOtzlLdYbVAD6lpSc0IedWqX0+wNZ+FBNwlEBkaJjN1HlLDmPUvjkqzRQr3uzt/fJ4ESMCCQHpermz1g9BadU7KiaJIORrAITXs5jqwZp06d6jvxRNUbg4LCbhLoGfTFjKinWmTj56L/sUR6Bts15qeFxRt1y+BtfEHpCCAL6LlRbP6Xbu03H8ITOzRT5rreJeaRtIY4sigB0L6z3KnJYFA4GBaihzOMO3UqY5SnWG1wrJgic1pUB3DZp8kYBgCdSNryrR+xjgKxRjiqCxfpGC3YRYYB0IC1UEgt7BQ1ieajouojlKdCdnHC6MkpdD23WHVwYJ9koAeCQxq1U4GtmyrR9NPs9kY4gjDKtgnUpZjiEnhIEigughsToqXzIL8aum+OsXR/pwGUlRW8aLnaoHATklAxwSm9x8qdSJOHVWg46EYICFbo48da9i5xlIpAjv3xKvzhlo0cy/E4Gk9a2NxQOSevQnqYEYW3xM4mpUhe1OSfd+xiFRXWC27JFwO59WtljEHeqcZiUekZr266gBFFNyPFhZZU6Lqu3eysqf1rPnjTCHY1LSb/hOKfb22sHUfW/iNUozjOZJykTycylpmlLnxeBwH45Ll+Ve/kqSjFfNHcNI1bqjv2rmljBreW4YO6lqhDxweOeWa/6lTsxe8c6fL/Xtaz7IDnAL+3Ktfy6H4ZKlZM0IWfXify/3zQe8RKCsvl1WH9ktpeeB8jhLz60hmcYT3ILIlpwTi1m+S/StWqxOrB0+fLHWbN5WSwiL585W31S65kTdd57QN8/+LPaxn2QGuM8E1KNnHU9Up3WffNsvl/vmgicDYzj2kYwPT/Z5GKAYSRyJioOtEvLG4cHcYrgjBRaq4UPVEerZs2X5QXfuRl1cgI8/sJbffdInUqHGqt2deXCTt2jRVd565U2zVw9Uix1IypHXLRi41BVuvmDlPQkJDKI5cIlY1D+1PPSZJmdV/nUjVjK5iq8VlQbKP14X4AvVpfeA+tKRtO2XoVVMkuonppbp5yY8S3bihtB822C2bbNXDidS436xWQ9cOI4RQ+/PVtyUoOITiyC36IrXCwuWqgaZ7O41SjCWOyvJECvYYZW4qPQ7cdH8w7qjcf8flFbxEECF3P/SB8tIMHdhV7r39MvP1IJXu1KKBV97+Ttq3aSIXjBvicrO47LawqJjiyGVi3n8wu7BANibGeb9hJy1WR1gtpTBKjjMR2+dzjQ7hOTq4Zr06bBKCyNtl+0+/S3TjRtJ6gOuhHlxoW1pcQnHk5mQgCRvJ2EYqxhJHmBnctYY711jkjgfek9iDR04TR0CD+8RuuPVVddGstXjCNQK27j0qKSmV4ODgCp4mS8yW9XCR7ktvLJHrrzrPpjjKzs5TF+FaF0/FEWyDzQgdslSewNYjCZKeb7ok1FelOhKy9+U0kGImYvtqilU/uDMsKDjYLI7OuGaa1G50KsfR3u8frZ49Yy3rHd21R7b98Jt0Ofssm+KoOL9AXUprXTwVR9o9aLgINxDLjAHDpHa4sULTxhNHpRkihQcDcX2eNmZH4ggPv/LWt/LXiq1y/tiBSsSs27hPlq/aLrv3JlTIOdqzL0FefGOJusE+N69QmjetL506NJeomhFy2cThsmlrbIV6eP7+xz9Swgv5Q3Wia8rj909Xl7t+8MmvcuRommrnwKEjct2M82T8uYPMttsSR/+u3iGLv/tXEpNSJDw8TKZcMkImTjhD1UHoDh6qoqISycrOU6Lv4XumSod2zbgGKkEgJTdbdiYnVaIF96v6WhxlFEdIUn4d9w1lDY8IpCckCUJpECWFOblSXlam/oQ4qtWgnhyPPShHd+2VjKSjFXKO8O9tP/wqED/IS4qqV1fqNG2icoPaDR0gqYfiK9TD8+s+/1q1j2fCakZK/8kT1eWte/5cIbnp6aqdrOTj0uXsEdKqX2/zeGyJo+Td+5SHKyfthASHhkr7MwZJm0H9VB2E7rb//LvKnSrKzxdcTtvv0gvMYUKPQOmsUueGTWRMp+46s9q5ucYTR+qNuUukrMD56A3+hDNx9OOv/6n8I4idl565QTZs3i8vvblEQkNDZPHHDyg6uPX+6tkvylln9pJbZ02UHbsOyYNPLlBenxlTzpZhQ7rL5q2xp9XTPEezZo5X4gtl0TfL5fOv/pZX5s2Sdm2ayGvvfi9//L1Zlnz2sISEmLZRW4sj/Bx1Xn9+jhQVF8v/XlosEF83XX+BnHt2f1m4+C9ZuWanvP3yXFX/4ac+kcmXjJCe3doYfHarfnjrEg5KXlFR1Xd0sgdfh9UO5daTvNJQn40vkDvCDrD/Fn4lvS8cJ026dlLC5Y+X31Ki4oyZ0ySyTrSkHoiTbT/+JrjbbcztcxSuorx8gWDB7rGe48fKicOJsv6Lb5TA6jRimDTu0kHSDh0+rZ7mOeo6dpS06ttLtXVg1X8Su3KtnHHNFVK7UUMl1JDzdM5dNytPFoq1OMLPUWfYtdNVuG3Ldz8p8db93LOlRZ8eEvvvGknes1/OvH6Gqr9h0RJpd8YgqdeqRcBM9yU9+0vTaOPt9jSmOCpJMSVnB3hxJo5Wrd0pz77ylYSFhsjXnz6kaM2c85Lk5BWYxdGKVdvlhde/kZnTx5q9NUj0DgoOMj9jq54mjrRkcDyzbuNe+e6nNfLgnVMkKipC5n/ym3z/8xp5Zd6NKgncWhzBUzX5qmekfbtmMnRgF/Xz7bviZP2mfdKpQwt54anr5OU3v5W//90qt82eKKPP6iP7YpOkZs1wt48iCPClYnP4iZnpEpt6zJBockvCJC7Pve3ihgTho0GtfP8TycvIVEJEC9nv/O1PSdyyQ4mj2g1NYbXlb82X4sJCsziCJwleo86jhpu9NctefEMQvtIElO16prBat7GjpWVf07EgKbEHJW7dJul76QXKo7TnrxUSv35zhZwnS3EET9UfL72pvECNO7ZXbUCcpRw4JHWaNZEhV14u23/8TY7s3KOEW7MeXSXzaLKEhIW7fRSBj6bB6920qFtPLure1+vt+kODxhRH2Nafv12kvMQfGFebDc7E0ccLl8mSH1ZJ9y6t5X+PXWNTHB04dFRuv/9d6dGtjTzzyNVmARMRESrvvnKLeWzWokoTR3OumyDnjRlgfg5hsJ9/Xy+r1+2W7Jw8OZp8QuY9NlO6dWl1mjhKSEqRm+58U9Xv28v0y0krtWpFKu8Qji2488H3VAgPZzPdMusi6dKpZbUxN1LHeDmsjo+V4tJSIw1LjSUhr65klYQbblz+OCCEnuAlqteyuQy8YpLZRC0h25E4yjp2XNZ8/EWFuhAwCG8Nv+Eqc1uni6qT4ujc0dKyz6kz02DL4c3b5Ni+WEHeUV56hgyadpnEtDCF4S3FUW7aCVn5waeqfv22pt9PWgmNiFDeoezjKbJmwSLlCcPZTD3GnaOOJQiUMq5LL2lX3/vJ9P7Az6DiSESKj5q+Arg4E0fabrYrLhtl3rpvLXKA77lXv1Khq2umj5XQkGD5cskKefCuKRVEiD1xpIW/0A4OeLz5rrfkjMHdZO4NFyph9umiP+2KI4TP7nlkvkyaOFyF8OyV1LRMdUYSnke5+9ZJMnxojwCeee8NPS49VeJOpHqvQQct+Sqsll8aIgdzXdve7ZOBG7wTnCEEz1FE7Vpy1pxrTxNHw2ZON2+3txY5eBjnDyF0Be8Rwl8HVq+TvpdMqCBC7IkjLfyFdnDA46r5n0rjTh2kx7gxcui/jSop3J44Qvjsv88WS7shA6XjWaYcR1sFeUZbl/6iwm0oWujQ4NMqDWvVlsm9T+WLGm28xhVH5aUm71EAHwrpSBxpXiPkG7363GwVWkOxJY4QxkK+0KjhvVQ4C8nY1sWeOLLMOZp9++vqYMrvPn9EHR3w5ZLlsnDx33bFUU5uvlxx7bMSEREmn7xzl/oTBTvTnnr+C7nrlktl8ZIVMmPqGJWzpIUJGzeKkfdfu9Von9VqGU9JWZmsjouVMh8cCumrhOyk/GjJKI6sFp6B2Cl2ci174Q01dIgjiCSU/ctXy8G168WZOEIYC/lCzbp3lTrNGqtkbOtiTxxZ5hxBoEGojb3nFhXag8hCzpA9cVRcUCh/vfqOBIeFyqibrld/omA8m5f8IL0uGCcHV69TwgmiDQIOQg75UyNmmTzxRi5jOnaTzo2M6yUzrjjCqiw+IlJcPVch+MOHYsrMeeqwx1tuvEjGjOorOIV6x+54lfsDwYOTsF97bpa6LkQr2sGR3y58RG2LTz52Qm649TWVVI0wVlhYqNql1qJ5A4m22IpvXW/r9oPy8NOfSL/eHWTWzPMl7vBxeXv+T5KekS03XD1OmjdroPKdYB92rPXq0VZat2wsl814SkrLymTJZ4+oIwOefXmxrPpvlzSoFy3TLx8thUUl8usfG5Q9SMhGH2cO6a7+jjL3nrelXt1a8vgDV/rDFBjChoNpKXI4o+Jp61UxMF+Io4LSEDlAr1FVTJ/DNrXk5zpNG0vvieOlvLRU1i9aonZ3tRnUX+UThUfVFOQTIUl77N1zVV4R8pT+ffdjlVQd06qFBIeGqHwhhLDCIk8JXOt6aXGHZcOX30qDdq2l6zmjJCclVXb9/rfaHdd1zEiJqhcjW77/WUoKC9WOtXqtW6q8J7RTXlau+kfZ8t3PcmzvfiXoOo44QyVlJ2zZpna4tejdQ/XRpHNHlZyNsvrDhRJWq6YMmHyxzxn7ssN6NaNkal/Xz6/zpW3e6svY4gg5R8p7VO4tXrpoJ+7wMXnlre/UAZBagdAJDgqSpk3rS8vmDaRPz/YyZmQf8+GPCHm9/cFPsnHLflWld492cuuciarO9XNfUQRQo9wAACAASURBVCdtWxeEzPr2bm+zXlRkuFxz08tK/EDYPPfktbJtZ5y8/u73Kj8I7U84b5DMe3mx6uOmGy6Uv5Zvka07TMcw9O/TUW6+4QKpGRkuT72wSLbvPHVb/OWXjJBpk0er5x6ft1C2bD+gDrnE/wbTM3JUcnajhsbbPVFdiw85R2vi4T2q2s+RL8Jq9BpVzyqCqMChjBAaKBA4NWPqKE9O8x7dpEmXjnJw7QZJPWg6fLR+65bSY/xYJZBWvPOhEkzWBSGz+u1ay67f/jqtXkh4mCx/60MlfiBscEUJkqkh0pAfhPZb9e+jdp/VCKoh3c8dI0d27JK0eFNovkG7NtL9vLMF7Wz+5gdVVyvYyt9h+FD1z41ffS8QYo07tVe/fyC+YDe8R0Yuozt0la6NjX1cirHFEVZngHuPKvsBxe6vF9/4Rh66e6rk5hZIYWGxFBQWyeZtB2Tdhr3y4Vt32O0CIijtRFYFoQKRVVZaZg6RoS2E9BBmc1Syc/JVW82a1jeHANX0FpdISEiIIO+oVlSEREYyybayc26rvq+8R1Vhu9YmvUZVSde1tkuLi1UidER0bSkuKFAiydaBs1pr2P2FXWc4OwhhLtSH0Eo7FK/ORbLMYbK2ACKoIDunglCByML3tRAZ2gsKCXFog/o9U1Cg2oqKiVFHDWhFO5gSHrCQiHAJCTOF/o1c6tesJVP6une9ix55GF8cIfeoYIcI/mRxiwCE0JSZ/5MJ5w6Wa2ecW6EuwmMvvL5Enn741I4Rtxrnw7oigNyjNXGxur6QFgc+4uBHFn0QgAjCRbSt+veWLqNHVDAaHhps8R849VJ9DMZAVuLARxz8aPRifHGkZH+yyYPE4hYBeGWmXf+c8s6MO2egukAWgmnX3sMSf/iY3H/n5dKqhWuXyrrVMR/2SwLx6Wly6ERKldlWlWE1HPaIQx9Z9EMAXpm/XntXhdRwVhFyguDpSU88IjkpadLn4vFSqwF3HfpyRhvXriOTep06msWXffu6r8AQR+rcI3iPin3NV/f94XLa3//cJBu27BeEtpo0ipGzzuwpY0f1Uwc5sgQOAZx7tDb+gBSWVs35YVWZkH04r65k81wj3S3W7OOpkrh1hzp4EWG1mnWjpWm3LtKid3cVkmPxLYHzu/aStvWMea6RNckAEUfY/81Ts337MWJvRiRwJCtD9qVUzQ7QqhJHEEUQRywkQAKeE2gd00AmdDt1D53nLemjZuCII8xHwR6Rsjx9zAytJAE/JbAxMU6yC71/d2FVhdUO5taTfN6h5qeriWbphcClvQZIk9qBc1FzYImj0kyRwgN6WYu0kwT8kkBqbo7sSD61tdkvjTxpVHpRpBwpMPa2an/mT9uMQaB7k+Yysr3pfstAKYEljjCrhQdFSjMCZX45ThKoEgI7k5MkJTe7Str2VqNl5TVkf04DKSl3fEyEt/pjOyRgRAIhQUEyvf8ZEhUWWDlegSeOygpECnYZcQ1zTCTgMwK5RYWyPuHUwZze6NjbYbVjBbUktejU6e/esJFtkECgETijTQfp27x1oA1bAk8cYYp5KW3ALXQO2PsEcCEtLqb1VvFmQjYvl/XWrLCdQCZg9MtlHc1tYIojEIH3CF4kFhIgAY8JrDt8UPKKizyub1nRm+IoPi9GckqMf1qxV8CzERKwQ+CC7n2kVd3APEsqcMUR8o6Qf8RCAiTgMYHU3GzZkZzkcX3Lit4KqzEJ2yvTwUYCnEAgJmFbTnngiiNQKIoXKan628YD/DPG4RucwJ7jRyU5O9MvRllSFiSxufWllEnYfjEfNEKfBCJDw2RavyESHhKqzwF4werAFkflJabwGv5kIQES8IhAcWmJrEs4JMWl1X9/YVJ+tGQUR3o0DlYiARIwERjTsZt0btQ0oHEEtjjC1MNzBA8SCwmQgMcE4DmCB6kypbJhtcziCEnMD5xD6irDmnVJwB6Bjg0ay9jOPQIeEMURlkDhIZHS9IBfDARAApUhsOvYETmek+VxE5VJyC4tryGxPNPIY/asSAIgEB4SIlP7Dgm4M41szT7FEajgQtqC3Qyv8fcDCVSCQFFpiTr7yNPwWmXEEcNplZg4ViWBkwTO7thNugR4OE1bDBRHGgl4juBBYiEBEvCYADxH8CB5UjwNq2UURUoSrwjxBDnrkICZAEQRxBGLiQDFkeVKKEoQKUnh2iABEqgEgX0px+RIlm/C1EVlwXIgt77gqhAWEiABzwhER0TKlD6DJTQ42LMGDFiL4sh6UhFeK8s34FRzSCTgGwLlIrIx4ZDkFBVWeYfxeXUlpySw7nyqcqjsIOAIXNCtj7SKCczDHu1NNsWRNZmyXJGCvQH34eCAScCbBLIK8mVTknu7QN0Nqx0vjJKUwlreNJttkUDAERjYsq0MatUu4MbtbMAUR7YIlRwXKUp0xo4/JwEScEAgMSNdYtOOuczInYTs7JJwOZxX1+W2+SAJkMDpBFrHNJAJ3XoTjQ0CFEf2lkVRnEjJCS4aEiCBShBw5/RsV8URTsE+mFtfinkKdiVmhlUDnUBUWLhc1nsgt+3bWQgUR3Y/IeUiBXuYfxTov0E4/koRKC8vl42J8ZJT5PySZ1fDaswzqtSUsDIJKAITuvWR1swzsrsaKI4cfVDK8k7mHyHFlIUESMATAtmFBbIpMU688Sk6VlBLUouiPDGDdUiABE4SOKNNB+nbvDV5OCBAceRseSC0hhAbCwmQgMcEjmVnye7jnp1/pHXK84w8xs+KJGAm0LVRUxnN84ycrgiKI6eIRKT4qOmLhQRIwGMCcSdSJS491W59R2G1vJJQOZRXz+O+WZEESECkaXRduaRnf6JwgQDFkQuQ1CNM0HaVFJ8jAbsEdh8/KseyM23+3F5CdnFZkBJGxWU8oI5LiwQ8JYAEbAgjHPjI4pwAxZFzRqeeKNgnUpbjTg0+SwIkYEVg85HDkpmfdxoXe+IoLjdGckvDyJEESKASBCb26CfN68RUooXAqkpx5M58qwtq94mUV/3Jv+6YxWdJQE8ECktKZEtSvOSXFFcw21ZYLTG/jmQWR+hpeLSVBPyOwJhO3aVzwyZ+Z5c/G0Rx5O7sqB1s+0SkzN2afJ4ESOAkAexg25J0WErL7X+OuDONy4UEKk+AO9M8Y0hx5Am30iyRwlhParIOCZDASQJpebmy/WiCTR6phVFyjFeDcK2QQKUIYLs+xBGL+wQojtxnZqrBLf6ekmM9EjATsNzir4XVCspCpdHgEaREAiRQCQLdGjeTUR26VqKFwK5KcVSZ+S9JESmy/T/fyjTLuiQQSASOZKXLvpRjYpmQfe69twYSAo6VBLxKoEODxnJu5x5ebTPQGqM4quyMFx8TKU6qbCusTwIBTSAhI01umvW6mQHFUUAvBw6+EgTaxDSQ8bxMthIETVUpjiqNEIdEJosUV+70X2+YwTZIQLcEgmvLix8tk6SsDDWE9sMG63YoNJwEqotAy7r15IJufaRGjRrVZYJh+qU48tZU8hRtb5FkO4FGILi2SHh7EQmSdYcPyvqEQ4FGgOMlgUoTwBlGuEw2JCio0m2xAXqOvLsGKJC8y5OtGZ+AhTDSBkuBZPxp5wi9S8AkjHpLSBBPkfcWWXqOvEVSa4cCydtE2Z5RCVgJoy+++MI80g5nDlFeJBYSIAHHBBBKO78rhBE9Rt5cKxRH3qRpFkhM0q4KrGzTQASC64iEt0Pao3lQF154ofnvS5culU2J8bImnueJGWjWORQvE0Dy9fldezHHyMtc0RzFURVAVU1ym39VkWW7eicQHCMS3va0UViLIzyw7WiC/HsQJ9KzkAAJWBLgdv2qXQ8UR1XJtyRNpCi+Kntg2ySgLwIhDUTCWtm02TKsNnXqVPMze44flT/379LXOGktCVQhAR7wWIVwTzZNcVTVjEszRAqx+6a8qnti+yTg3wRCG4uENvfIxkMnUuTXPdulrJyfI48AspJhCPBKEN9MJcWRLziX5ZgEUnnFW8h90TX7IAG/IABRBHFUiXI0K0N+37tDcooKK9EKq5KAfgnwElnfzR3Fka9YlxeaBFJZnq96ZD8k4B8EwtqIhNRzaou9sJplxcyCfCWQjudkOW2PD5CAkQiM6dRdOjdsYqQh+fVYKI58Oj1lIoVxIgi1sZCA0QnUCBWBMMKWfReKrYRsW9VKy8pk2b6dciDtuAut8hES0DeBqLBwOadTd8FZRiy+I0Bx5DvWp3rCXWy4k42FBIxKIKiWSHgbkRphLo/QVXGkNbgqbr9sSTrscvt8kAT0RqBpdF0Z07GbREdE6s103dtLcVRdU1iSKlLEX+zVhZ/9ViGBkPoiYa3d7sCVsJp1ozuTk+SfA3vc7osVSMDfCXRt1FRGd+zm72Ya1j6Ko+qc2tJs01b/8qLqtIJ9k4D3CHgh8dpdY5Iy0+Wv2N2SVZDvblU+TwJ+SYCJ19U/LRRH1T0H5SUmgVSaWd2WsH8S8JyAyi9qJYKTr6uh5BcXyd+xewRb/llIQK8EkF80qkNXaR1TX69DMIzdFEf+MpW8k81fZoJ2uEsAggjCCAKpEsWTsJp1d7y0thITwKrVSqB1TAMZ1aGLQCCxVD8BiqPqn4NTFsB7hDwknofkT7NCWxwRCG0qgi8vFHcTsu11GXciVeUh5fI8JC/MCpvwBYGBLdvKoFa4a5DFXwhQHPnLTGh2qDBbgkhpur9ZRntI4BSBGuEiYS1FgqO9RsVb4ggGIcy24uBeiU3ldn+vTRAb8joB7EI7q11nacUwmtfZVrZBiqPKEqyq+ry4tqrIst3KEsButNAWIjWCK9tShfreCKtZG8SLa706RWzMiwS6NGoqI9p1ltBg736OvGhiQDdFceTP01+WL1KcKIJdbSwkUN0EIIYgiiCOdFTScnNk5aF9kphJb6yOps2wpoaHhMiZbTsJxBGL/xKgOPLfuTllGQ6MxMGRLCRQXQSCY0TC4C2qXNJ1dZmPfjclxsua+NjqNIF9BziBjg0ay7C2HZl0rYN1QHGkg0lSJiovUpJIKe+U0suUGcLOGiEnvUXO70ar7HirIqxmbVNqbo6sjtsvCRknKmsu65OAywQiQ8NkWJsO0pneIpeZVfeDFEfVPQPu9q9ykeBFKnO3Jp8nAfcIhDQQwaGOXs4tsmeENxOynQ10+9FE5UUqLi119ih/TgKVItC9SXMZ2rq9hIfo1+taKQA6rUxxpMeJw1b/4iMiJWl6tJ42+zuBoJoioc28uhPNlSH7UhzBHmz1Xxt/QPYcP+qKeXyGBNwi0LBWbRnSur20qquvHD23BmnghymO9Dy5CLFBJJXl6XkUtN1vCASZziwKbVwtFvkirGZrYIfT0+S/wwfleA5D1tUy8QbrNCQoSJ1Z1Le5+/cLGgyFrodDcaTr6TtpPEJtOGEbZySxkIAnBFQIramuE649GbZlHWz7X3/4kBSUFFe2KdYPUAIIoeFAR55yrf8FQHGk/zk0jaC8VKQkWQQ721hIwFUCuPojtIlIUJSrNQz9XFFpiWxIiJPNSfGGHicH510CuPpjQMs20qR29dwt6N3RsDUQoDgy2jooLxQpTmY+ktHm1dvjgRiCKKqmi2JtDae6wmq2bMnIz5ONiXHMR/L2ujNYe41r15H+LVpL23oNDTYyDofiyKhrAHlI8CLxGhKjzrBn4wqKFAlpLBJS9Vvz3TXQ1wnZrtiHPCR4kXgNiSu0AueZ+jVrSd8WraVzwyaBM+gAGynFkdEnvCxHpPi4SGmG0UfK8TkioERRI78+3dofxZGG9GhWpmw9clgOpPGutkD+oNWrGSV9mrWSro2bBTKGgBg7xVFATDOORco9KZJ4hUKgTLkaJ7blK1Hkf54i63nwp7CavTWSnJ0p244kyP5U5vYF0ucI2/J7N23JQxwDaNIpjgJostVQcdI2dreVpAbayANrvMG1RUIaigTXDaxx+2i0aXk5goMkdybzWh8fIa+WblrUrSc9m7SQdvWZU1QtE1CNnVIcVSP8au0aB0lCIOELf2cxBgF4iLAtP6iWMcbj56PIKyqUHclJsvPYEcHfWYxBALlE2JbfNJr/uTDGjLo/Cooj95kZrwZO2sYX8pNY9EcAl8FCEIXUF6kRpj/7T1qsh7CaI7g4aXv3sSNyJIv5fXpchLXCwlUuEb5qh0focQi02YsEKI68CFP3TSEvqeTEyWMAeHeb389ncLRJEAXH+L2prhjozwnZrtivPXMsO0sdAbA35SjvbnMHXDU92zqmvsol6tigek6Gr6Zhs1snBCiOuERsECg3iSQcA4ArSlj8h0BQhEkMIXxWI9x/7PKCJUYRRxqKsvJy2ZeSrL4SMk54gRCb8BaBupE1pVPDJtKpYWOpE1HTW82yHQMRoDgy0GRWyVBwqGQJRFIG73CrEsAuNFoj5KQgijF0LpHew2qOZjKrIF9iU49JbNpxScnJdmHS+Yi3CUSGhkmHBo2kff1G0ryOMbyt3mbE9k4RoDjianCdAHa6QSSVZlIouU7NsyeVIKp78ivaszZYyy8JpOXmyMETKXIoLUVScimUqnKSaoaGqdOr29ZvKAifsZCAqwQojlwlxecqEigrOCmSskRK+QveK8sDIbOgaNOVHtiKz2J4Aun5uRJ/Ik3i01MlMZNnkHljwmMio5QQal2vgbSgh8gbSAOyDYqjgJx2Lw8al96WnRRJyFEqL/JyB0ZtLsgkgvAFUQRxFMDFyGE1V6a1sKREEjLSVH4ShBJCcSzOCYQEBUuLujHSsk49aRlTTyCOWEigsgQojipLkPVPJwCvEo4FwFdpDsWSmRDEUJQpb0gJIp5FZLl4jJaQXdlfDfAqJWVmyJGsdMH1JTmFBZVt0hD1Q4KC1PlD+ELuUDOeRWSIefW3QVAc+duMGNEeJHWX5pquMMGFuPiSciOOtOKYVJis5skviCL+j9bRpFMcOf5IZBbky7HsTMFRAcdysiQlJ0uwI87oBTvLGtWKlsb4ql1HGtdmDp7R59wfxkdx5A+zEIg2KJGUb/oqx58FOj6pO0gEF7sqMRQpUgN/rylSIzgQZ9bjMQd6WM0TcEjoTs3NESR5n8jDV67k6vSk7tDgYBUSw4339aOipH5UbWkYVUvCQ0I9QcM6JFApAhRHlcLHyl4lUF4iAi9TWaHpT/X3IlNYrrrzmLB7DKdPa19B4aZzhiCIdHwqtVfnj435BYGCkmLJyM+TTHwV5KvcpazCAhWWw1d1+poiQ0OlVniEOoE6OjxS6kRGqnOG4B3iqdR+sXxoxEkCFEdcCvohgDvg1BdEFO6DKz3599KTf8ep3mUi5Sf/VK8B61dBDRE5+VUjCNfWm77g5VGeHvwJIaR9hYrgeg71HAsJ6J8APEt5RUWSV1wk+cVFAjFVWFwshaUlUlRSIkWlpVJShq8yKS0rk7JyfJWbPknlIjVq4KuGBNWoIcE1ggQ5QCHBwRIaFCxhISESFhwi4SEhEhESKjhbCF81w8IkKixcPctCAnogQHGkh1mijSQQAAQYVguASeYQSUAnBCiOdDJRNJMEjE6ACdlGn2GOjwT0Q4DiSD9zRUtJwNAEKI4MPb0cHAnoigDFka6mi8aSgHEJMKxm3LnlyEhAbwQojvQ2Y7SXBEiABEiABEigSglQHFUpXjZOAiRAAiRAAiSgNwIUR3qbMdpLAgYlwLCaQSeWwyIBHRKgONLhpNFkEjAiASZkG3FWOSYS0CcBiiN9zhutJgHDEaA4MtyUckAkoFsCFEe6nToaTgLGIsCwmrHmk6MhAT0ToDjS8+zRdhIgARIgARIgAa8ToDjyOlI2SAIkQAIkQAIkoGcCFEd6nj3aTgIGIsCwmoEmk0MhAZ0ToDjS+QTSfBIwCgEmZBtlJjkOEtA/AYoj/c8hR0AChiBAcWSIaeQgSMAQBCiODDGNHAQJ6J8Aw2r6n0OOgASMQoDiyCgzyXGQAAmQAAmQAAl4hQDFkVcwshESIAESIAESIAGjEKA4MspMchwkoHMCDKvpfAJpPgkYiADFkYEmk0MhAT0TYEK2nmePtpOAsQhQHBlrPjkaEtAtAYoj3U4dDScBwxGgODLclHJAJKBPAgyr6XPeaDUJGJEAxZERZ5VjIgESIAESIAES8JgAxZHH6FiRBEjAXQK5ubnyyiuvCEJoPXv2dLn69u3bZenSpXLbbbdJVFSUy/X4IAmQAAl4QoDiyBNqrEMCJOAxAYTP8AVxNGXKFLNIshVWgyhatGiR4M+pU6eqLxYSIAESqGoCFEdVTZjtkwAJVCAA79G1114reXl56vuaSHrwwQfNzz399NNmUYRv1qxZU+bPn0+vEdcSCZCATwhQHPkEMzshARKwJKB5j1ylQq+Rq6T4HAmQgDcIUBx5gyLbIAEScIuAtffIUWV6jdxCy4dJgAS8QIDiyAsQ2QQJkID7BFz1HtFr5D5b1iABEqgcAYqjyvFjbRIgAQ8JuOI9otfIQ7isRgIkUCkCFEeVwsfKJEAClSHgzHtEr1Fl6LIuCZCApwQojjwlx3okQAKVJuDIe0SvUaXxsgESIAEPCVAceQiO1UiABLxDwJ73iF4j7/BlKyRAAu4ToDhynxlrkAAJeJGALe8RvUZeBMymSIAE3CZAceQ2MlYgARLwNgFr7xG9Rt4mzPZIgATcIUBx5A4tPksCJFAlBCy9R/QaVQliNkoCJOAGAYojN2DxURIggaojoHmP6DWqOsZsmQRIwDUCFEeuceJTJEACVUwA3qNbb71VXn31Vd6hVsWs2TwJkIBjAhRHXCEkQAJ+Q+D48ePSqFEjv7GHhpAACQQmAYqjwJx3jpoESIAESIAESMAOAYojLg0ScELgyJEjEh4eLvXr17f7ZFpamhw8eFAGDhxoaJ6lpaWyd+9eiYmJkaZNm3plrHl5ebJ//37p0aOHBAcHe6XN6mwkUNZCdTJm3yRQ1QQojqqaMNuvEgIJCQny1ltvyYkTJyq0HxoaKj179pQhQ4aoP4OCgjzuf8OGDfL5558LcmGuueYa1aZ1OXbsmLz33nuSmJgokZGR8sorr3jcn79X/Omnn+THH3+UsrIymT59ugwfPtwrJiMR+59//pGZM2fK4MGDvdJmdTQSSGuhOviyTxLwJQGKI1/SZl9eJVBeXi5z5sxRL2sk8rZv317i4uLk3XffVYJmwIABcv3111eqzx9++EEJAnviCI0XFxfL7bffLiEhIYYWRxjrzz//LN9//71XxdGuXbtk6dKlaq4ceecqNZE+qlyVa6GwsFDglWrWrJmPRsNuSCBwCVAcBe7cG2LkDz/8sCCJ9+6775YOHTqoMeHf+D7KE088IY0bN/Z4rKtXr5YFCxY4FEdo/J577pGioiLDi6P//vtPPvzwQ6+KI48nx08rVtVa+Pjjj6Vly5Zy9tln++nIaRYJGIcAxZFx5jIgR/Loo49KcnJyBXEEELNnz1YeJXgj4EFCQb4MclrwfVfDbdbiyF7dqnohOppUeMeioqJOewQetRo1ajhdDxoPPI/iSh1H4gheE/BBfpa94oi9q3Zbtm3Znjvzam0fvDKO7LbVJ/qDzdZ5Uo7Wgr05Q/ua/WgTX5ZrVOM+efJkm+LIUbslJSWqLVfXvNOFY+OByvThyecSJlSmT0/GyDqBRYDiKLDm23CjtSWO8KK75ZZb1FgRdktJSZF///1XevXqpf6+efNmueiii+T8889XicCLFi1SXp/s7GzlZbriiiukdevWqr4mjs4991zlkdq6dat6GaIuvrRi64W4fv16+eWXX+To0aPqxTt+/Hg555xzBPZt3LhRVq5cqUIkDRs2lD///FOQmDxq1Cj13LfffiuoD7vw73Hjxqmu8AJdvHixIL8lPz9f4uPjBS9M1ENB2/fee69KmAYbW2XPnj2yZs0aZcOsWbOUJwgvmueee04JyE8//VRiY2NVaBKhyquuukrZiGJLHO3bt0+Qj1SrVi3Zvn27eva2226T2rVrqzpo++uvv1YJ62gfYwK7oUOHqvlYt26d4gw2I0eOVHXwzDfffCPbtm1TQgHjRs7XhRdeqMKXmEPU2bFjh9x1110qNwx5X5g/eBG1vjEGR+PZtGmT/P3334JTuQ8fPizt2rWzGYpFbhvW0Nq1a9U6wr/RN+xCntSMGTOUXSjWa8HRnGVlZclff/2l5lrLkcO6gNC89NJLZcyYMXLgwAF54YUXVF/Ia8PYsL4RgnS2FuBtQls5OTnK5ptuusm8ti3XxldffaVsQOnatasaD9Y56iPsOWHCBBkxYsRpywnrzVEf9j4D+KxhLdn7XNqrp61xV8dluF94HJDPCFAc+Qw1O6oKAtbiCL+s33//ffWS7tSpk0yZMkUJDfwbZezYseqX/Zlnnqle4q+//rp6EQwbNkwKCgrk8ccfVy8RvOAgDDRxhP91X3DBBUrkoD28cHCSs/Yyt34hrlq1SpCv9Mgjj6hn33nnHSUOkMiMlyvE0G+//aZsglDo3bu3EgMQGnj5QRDVqVNHvfTxInnppZeUlwj5T2j3oYceUiGWTz75RNDXm2++qV7OmjhCXYzFVlmxYoUgCRovW4iB5s2bK5EIUfXYY4+ZX4QQT0g2hz3z5s1T7VuLI4gYiJO2bduqvCuIkTvuuENxxssdBXXBDXlh4Ai7sAPwySefVC9tsEDyu8YTYuipp55SbeFZ1MVL9LPPPpOOHTuq/iAYMGY806ZNGzU3mGMkduMlPm3aNCXKHnjgAbvjgW0QcTfccIOaE4gj9IE61iU9PV3lRWE9oMBWCD2IQtgAEXPZZZfZFEeO5gz8IKB///13VReivUWLFkpwoN2XX35ZCTeNu+Wac7YWkBuGOURoGQVtYV3hc2FdwBxzDy+stvbxDOojz0wLU1vXc9SHo88APltLliyx+bkMCwuz+9nBJgB3xlUVv3PYZmAQoDgKjHk27Cg1cYQXOF6GKHiBdu7cWe2mwosVguPFF188LUEbL1m8YrRalQAAHbxJREFUnF577TUzH/yP9YMPPpAmTZqoF7MmjizDGfAYQFTBO4MXP4qlOILowP/sW7VqJX379lU/hw3wgkBE3HfffcpLBDGB7etz585Vz8AbAhGFFz3+p44CAYWXCIQLhAzaWLZsmQob4qWJ//H/8ccfZrGEOq6Ep5555hnldfrf//4n9erVU32hXXh4LrnkEnMIBn1jPNoL01oc4Wdvv/229OvXT3mCIDAhgsAfIgmiB2L15ptvVp4RFPQLrhdffLFEREQojwWYay9+eGc++ugjJXAsvRXgBpECXuCGOcBcYA4wF5rHUGPsbDwNGjRQ44K4gkclOjpaedQwDltl9+7dKqcMHq5JkyapRyB4n332WcEuyTfeeOO0tYBvOJszeBYhTCw3EMCbCY+WNXdLJs7aBUOwvPrqq9WYsFkBvLG2HY2vS5cuam2iQFCdccYZdncR2usDB3k6+wzY+ly68tlxd1yG/eXHgVUpAYqjKsXLxquagCaO8HJDQjYEg3WBR+Dpp58WhMbw4kfRPByaCNLqwEsD0YSClz5eLkjIvvHGG5UAQIEIQ38oEDPI1bEUR9rLDi/2bt26VTAH3h/8z117kcNjobWlvWi1kB8q4n/f8A7hGTyLgrrwkEBMYRzWCemuMIdYxMsJO/u0ArGBM4yuvfba05rA//QhHuzlHOHF++uvvyqxuXPnTiU47r//fsUOQghtwyNgq2gCShNHmjdME0FaHa0teNrASBNHECd169ZVj2Ge4FGDZ82V8UC4oX94tCB6Jk6caDc3B+FIiAWtf/QHIQoxiDmBOIJIshVidTRn2nrBGVnXXXedGofmFYLAhNDUuFsLRkft4rgLiGAIDqxzeEgxj46K5tXD5wr/4XjwwQeV11ILGVrXtdeHK58BW59LV+p5Mi5XPhN8hgQsCVAccT3omoC9hGzLQTkSR3gpIjxjmayKUAvyeeyJI7QNLwZCQra8BZrIQZ4QXra2ii1xpNnpSBxhKzdeYBBqeNnBs/Tdd9+dlpDubFJtiSOIDNiO86PsHcZoLY4gDhYuXKjyhvAihyiCVwteM4gjTcDAi9C9e3e3xJElB1TUQmuayHUmjlwZD9qF0Pzyyy+ViECIESEkW8nptsQR6kMMQVRjvWj/tty56GzO3BFHludLOWsXtsDThtAo5hXFcoOCrcnQvKJ9+vRRc5mRkaE8eo6KrT7gjQR/R58BW59LVz47nozL2eeBPycBawIUR1wTuiaAnB4kJ1tu5bcekK1fwngGL2wtRwchKxRNtCAsgJwYLaxm6TnSQmJ42WuJ35beAu3nCOk9//zz5l1Q8DhBeMA7APGBupaeI1fEkTZevIgh6JDzglwYR+O3NcG2xBFEDvKRIOi0BHDURS4PPEMI91mLI+Rv4aJYzZsCsYQkb81zhLAcBJzlONEmvF4QEEhmtvYcwQbYgjlBOFErWqgJSfbI0XImjpyNB33Dy4VkdnjgIJKRy2TtsdL6tyWOIB5go5YLZUscOZszd8SRZc6Rs3YRckXoEl4fLX8MoUR4UR0VrV2sX+Rf2QvDoQ17fcDjhNCco89AamrqaR5dVz47WPOejEvXv+hovM8JUBz5HDk79CYB5LIg4fnKK69USda2ivZSw8sQpzBrBfklSHxFXhBe6ChbtmxRHgDtBamJIyTbIukWRfPWIGkYO4YgCPA8EnQhfuB1QLgKO6GQCwMPCGxcvny5SuBGLhT+148Xj5abg3Y1O/GyRiI5CvKJ8AJCqGvQoEHKS5GZmal+jp1Z8ArAy4WcKLSlhQkRvsNL2972fAg/7O7CDjUkb6NYng8FO5F7gtAbvAl4YSJkhORp7JBCeBIeHHiM5s+fry6LhY0IQyJXBm1qhzriRQmvDMQk8o6Qu4NdavDQQOBpbWoCCyISYTF4JOAZxI4+MIYNeNHjT4wLuUaHDh0yn2WlvVg1YetsPBDVyCFC6AkhPy2nSMthsl5L2vxACN15553KBiQHI2FZS5C3tRaczRkEOebBUkBqwk4TgpptYAiBlJSUpJL1Ha0F5I/179/ffJI5ErMxLwgDOirYkYl1jMRwe4nYWn3ws9eHs8+Avc+ls3qO+vTm7xa2FdgEKI4Ce/51O3q82JEvgt01KHhx45c0TrK2LPhFj51ZeNHiRQyBgQRVTTTgRY6XPTwdCAXBM3L55Zebk3JRDy9/eBTwcy3pGy9+CBH8HAILv+hRkCgMoYbEV7xgkMOjFe3lj5cyts/DGwObzjvvPCVs0I5mJ7w3CE3gJQnxg5caQioQAMi9gdiAeBk9erTKe4InCuEs5JRo/2NHroj12TZ4eUNQQbihQGBBaGm5URCHeDmhfRQIDbygcY8aWGGnHl7m2FIOGyFIkdSN+YAgg3cJggrto02IRggYCE6EnlDgEYKtyGGCMNJ2fMHLAI8AxCE4oA52tWELP8QACmxBLox2Uje+h2MXEGIEKy18pIXeHI0HNsOLgnwlzBv+jXAlco9sFe1ljnHCVjCA9wNjwfZ3e2sB9ezNGY6NQK4W1gTmCjv8MD4cPwBBjTWAfDN4fBDKxVqA4IbwxdpytBZwRAA8exgT1juEFNa+K6eQw6sJEWYvOV3jA++dvT6QnG/vM+Doc+moHvp11Kduf6HRcL8jQHHkd1NCg3xNAIIHL1+8QJBzYivfBqICL0K8SCHEXC0I1+ClCRHiTj1H7VsftgixgrY1IYR/Ywz2kmid2Y6xQnRC4OFF7EpB/hXOOdIKXnCob1kQgoKHxlbSvL0+UAceIAhRiClPir3xaOcnYf4h3CBAHBXLsBpOqcYYndXR2nM2Z66MC4IVa8lS3DhqF+PCOkAdMLeeD3t94igLeOfgoXG2hlzpw9PPgL16rvTpCk8+QwKOCFAccX2QAAmQgAsE7CVku1BVF49ogha7BeEV085t0oXxNJIEvEyA4sjLQNkcCZCAMQloyegIzdo67kDPo9aODkC4EB4q7DSzdTWNnsdI20nAHQIUR+7Q4rMkQAIBSQC765C7hpwvhJqQ74WTtavyvjJfgoZXDLloEEfYtICkcxYSCGQCFEeBPPscOwmQAAmQAAmQwGkEKI64KEiABEiABEiABEjAggDFEZcDCZAACZAACZAACVAccQ2QAAmQAAmQAAmQgG0C9BxxZZCAmwRw3QPOj8EBiSxVS2D//v3qUERHV1g4sgBzhWtZcIAnDrJkIQESIAFXCFAcuUKJz5CAiDqRGKdy48BAyzuuCKdqCODcHVx1gdPBcb2GuwVzhYM7cWggTr92dumqu+3zeRIgAeMSoDgy7txyZFVAADe4Y0s3xVEVwLXRJK4QadmypUyYMMGtDnGh7GuvvSZvvPGGunIDf8ehhrimxdcFJ5bjLj3cEeeL4uv+fDEm9kECviZAceRr4uxP1wRwQz1euBRH/j2NS5YsURcE45646i64Mw8CD1eO+KL4uj9fjIl9kICvCVAc+Zo4+9M1AWtxhPu5ULSLbH05ONw9Ze8UY5xyjAMKYR++PD2sECEp1PW0viUPzSZ8z/LvzpjBfmu+zsaHC09xuaktcVRaWqpyxmzZ4IipMzttsdJO1Z48efJp4siRHc76ws9trT1H/bnSpqdsvLlOXLGTz5BAVROgOKpqwmzfUAQ0cYQwD26Mx63vKLihHjfB41Z43KiOMApuXMeN8gjD4aWFlzFugcflqxs3bpSVK1eqUEvDhg3V7fQ4fRk30o8fP16+/fZbWb9+vRQVFal/jxs3TvWDNhYvXqxucUe4KD4+XvDiRb2srCzBTeyo17NnTyVo0AcuJ8Vt72PGjDHPBRKdFy1apNpHDhUuxoW9uOEeBaEZeCBQF5fK4jJS3A6v/dx6UiEqMO7Y2FjB39u3by9XXXWVGhtOl169erXs2LFD7rrrLvn8889VDhD6vPvuu1XCtXXBS3rbtm2ybt06OXDggMo5cmV8mJP58+eruQGrFi1aqKZxGz1yxv7991/p1auXpKSkKLsuuugiOe+88+wy1ewC019++UWQ4I1TpDEn55xzjkNWEAwvvPCCsgN3lWGcuHYEjKztGDFihPq+o3WjccIaw9xhHeFS3jZt2ihPJubIur+LL75YfvjhB4ftYhBYn56wcXedGOqXAQdjaAIUR4aeXg7O2wQ0cQThAcGBXVQffvihEgQvv/yyuv18xYoVsnDhwgqhN7y0IEhwZxW8IBBDCPugnH/++dK7d2/55ptvZN++feolipcvEpEhJCBeXnrpJeUl0u7Aeuihh1SoBpeErlq1St58800ldPAC//3331W7ePFDHEDkWNoHkfL666/LjBkzZNiwYep2+ccff1y9XO+55x4lbL7//nsl4J544gnVFsYGmzp16nQaUoiABx54QOUF4SWPeriKAuOYN2+eEnCwDzbgRX7BBRcIOCJ/C89PmzbttDZhE54B29DQUJUzBPHoyvjQ2DPPPKP61TxHEEsItaFNlLFjx8quXbvkzDPPVHZBQNhiiqtCwBc/x031EIvvvPOOEsHTp0+X4cOHO2SleXK0MKwjO+DNcrRu6tatq9bHiy++KPfff79iqeVW9enTR2bPnq1EDphZhn2drUdw9ZSNO+vE259FtkcCVUmA4qgq6bJtwxHQxBGEB0QNCv4X//fffyuvCO6k2rBhg9rVZvmCwgsVngqII7zk8EK6/fbbpUePHjJ37lzVDn6O5yAetARkCCi8uO69915p166d8qYsW7ZMvQghxL766iv5448/zC92eDYee+wxGTBggNqdZWmfJnxgJ4QUBIdW4Bn54IMPlNiDUProo49k7dq1yuMydOhQiYuLk4iICJtb6mHP119/LZdccok5/Aab4THR+oQYgyiDWIqJiVGeqVtuuUXatm0r9913n911gp+BlWarK+OzJY7wPU1YWLLB9x0xbd68ubITRwH07dtX2Yl2UEez3RErTaxAAEIIOrLDlXUDHvAYaaIV7X333XfKowf7bPXnSruesIE4d2edGO6XAQdkaAIUR4aeXg7O2wQ0cQQhgDAaCrwZeEHhJdq9e3eXxJEmDhDiQbgKBd4IiCdL4QWvBbxDeAbPoqAuvC4QU/B6ILSC8FSHDh1U2AfiaODAgXLdddep5zVv0x133KE8SfhTE0EaH3inIJpQsEMsKSlJeV8gcPAsvEzwKNkqED4IWdm6qR51oqOjlacK4kgTh2jnxhtvVN4veGzsFXviyN74tN1o1p4jtI/zjhDWxLxh/iyLPabw1oEnhE23bt0q1MHP4ElLSEiwy8qWWLFnhzMRAy/WnXfeqUKoU6ZMsYnMU3HkCRusN0dj9/Znj+2RgC8JUBz5kjb70j2BqhRH2gvKkThCTgo8O/369VOCBZ4lCDN3xRHCggh1WSZa33bbbSqPCeII309PT1fhMYg2FHvnBEHw4BkkQSM0ZE9A+as4csQUHDA+5Hwhr8xescdKEytaCM6RSHMmjjA3EGrIU3v00UcdiiPL/py1C0+mPXHkbL3BCFfXie4//BxAQBGgOAqo6eZgK0vAHXE0adIkc9KudVjNlufIFXGEvBckY2sC5qeffpKlS5e6LI7gWYGHC/1roTow0ezBqd9PPvmkCtchmRfeCi2HqEGDBsrzYl2QJ4O8FogHLXEcz4AVwnEIE/qz58gRUwgRhD+RhP3888+rP1GQZwUxCO8c5sAeK1s5QM48R/bWDXK45syZo/pHWA0J7ZotyCuDLbb608SRo/VozyZn682ddVLZzx7rk4AvCVAc+ZI2+9I9AS3MhTNrsEsMRcs50vJzMjIylPCAmMCOreTkZJVoi4LcEyQB43/bSGKGWEGYC2XPnj0q8dkybIJ8IryAELIaNGiQyuHJzMxUYRW8HOHZgUcBtqAtiBzs7LIM12niBS9WJH6vWbNGJWkjR2XWrFmqb+y6g+BC/hPyoF555RXp37+/SjjWXsZIEMeJ1dYFYb2HH35YfXvkyJHSpUsXlZcDTxFerkioRq7RoUOHzC91LedKE2P2FsbNN9+skqA1MajtXHM0PrSFECFChUiE13Z5aXwHDx4sM2fONHfpjCnEz6ZNm1SuFLx6sGf58uVqrODjiNXu3bvVzxFuRQ4awpXI3cI8W9vhyrr58ssvVUgVTJHzhl192GWG9QBvoq3+kLjtbD1ivmzZ5IwNcs1cXSe6//BzAAFFgOIooKabg60MAew2w+4nvHTxcoLQQU4OturjhYmXsJa8qwkS9IeXFvJTIECQK4MvvOTgVUHYBlvJIWwgWCCa8D14YerVq6dEFcQPhAlCJRAVCxYsUP1ChIwePVolcSOcha34v/76q/IsabvpYBO22MM+tIfcJeQdIYEcRwLgxYlkY3gcLr/8cpV8jQJPD3ZzwXbsroMgg/irX7++TYQYG9jALhSIHogx3Gf2888/qx1dKEgcRjgQ49LCdbZygBDOwU49CCwUjBUeKORfORofGOE4A60ekqax5R4eMMyTxhdCE+PB2JB4bo8pEt+RNwUvEfKqtAJhAqHkjBV23SFvCnMIcYUxYOebLTvQlqN1gz5xJADEOAQRCuYZY8auQxTr/iCK0K+jdjEnCM16wgas3Vknlfn8sS4J+JIAxZEvabOvgCKAZGm8lBGKwUsLHgNvFAgdiBAtxANvEcSauwc1IjQETwYEAnZlWeYL4Wf4N16Y2BXniu04lBBeMjyLF7KeiitMMZ/gAY8deGvFGSvMFerZE5bWnFxZN+gTbcI7aeuATFv9udKurTlzxMbZ2PW0BmgrCVgSoDjieiABEiABEiABEiABCwIUR1wOJEACJEACJEACJEBxxDVAAiRAAiRAAiRAArYJ0HPElUECJEACJEACJEAC9BxxDZAACZAACZAACZAAPUdcAyRAAiRAAiRAAiTglADDak4R8QESIAESIAESIIFAIkBxFEizzbGSgI8J4OwjHPaIQyG1k6pxmCb+jgtt3Sme1rPuAwdMwiYcxslCAiRAArYIUBxxXZAACVQJAVx9gpOXcYigdo8bDsPEFSQ48RvXnLhaPK1n2T5O1sZ1K4mJieqkaVzrwUICJEACFEdcAyRAAj4lgOs+cB8d7pHDNRUouCetZcuWMmHCBLdssVUPp4PDE4QLYl0pEGq4SBYnl1McuUKMz5BAYBKg5ygw552jJgGfEIDn6JdffpGHHnpICSJvF9xHh3ZxEbCrBZepFhUVURy5CozPkUAAEqA4CsBJ55BJoKoJaHdu4cJZiKOHH35YXXirFeQiWd8Jhp9p9Wz9DD+3rIfLcj/88EOZPHmyTXGEu8Rw4a918VQcwTbcX+fuHXZVzZrtkwAJeJ8AxZH3mbJFEghYAkiaRigNoiQzM1NKS0vVnxBHTZs2lW3btsm6devkwIEDFXKOkCA9f/58daEubrDH5a5t27ZVuUHnnXeeuvndsh7qv/DCC+p5PIME71tuuUVd7rp48WJBfhHaiY+PV+Jp1KhR5jmxJY7Wr1+vRNzRo0fVhb7jx4+Xc845R9VB6A4eKoTkcnJy5MSJE3LTTTeZw4QBO9kcOAkYmADFkYEnl0MjAV8S0ATPddddp3aCQRgh+RqiAuIIN8hv375deXtwq/1rr72mzMvOzhYIlsGDB8tVV10l+/btk5deekkJrIsvvlj69+8vO3fuPK2e5jmaOnWqjBw5UrX1448/yg8//GAO42k5T2+++abKM0KxFkfIiUKdRx55RNn6zjvvqN1s06dPl+HDhwu8Xxs3bpQnnnhC1X/55ZeVeOrUqZMv8bIvEiABHxKgOPIhbHZFAkYmAHGRkpIib731ljlk9tlnn8m///5bIax23333SV5enlkcwWvzwQcfyKRJk8zemptvvlmFrzQBBW7W9TRxNG3aNBkxYoRCC8/UsmXLZPbs2VKzZk356quvBLvmLHOeLMURPE/wOLVq1Ur69u2r2oA4QzvwXKHPjz76SNauXStXX321DB06VOLi4iQiIsLtowiMPPccGwkYjQDFkdFmlOMhgWoggNATRAa8KXfeeafZAi0hG8KpefPm6vvWIufw4cPy9NNPV6gLAYPw1pNPPmluyxVxhIdhyz///CObN28W5B0dP35c7r77bunQocNpniOE0R577DElrrp161aBHDxXGE9CQoI888wzKoSHs5lmzJgh7du3rwbK7JIESMBXBCiOfEWa/ZCAgQkgxwcCKCYmRubNm3eaOHr00UfN2+2tRQ4efv/992XDhg1y6aWXqpDbTz/9pLw/liLEnjjSwl9oB9v6H3/8cenXr58SMb/99ps6a8meOEL47Nlnn5Vx48bJxIkT7c5Qenq6OiMJz6Ncf/31MmDAAAPPKIdGAoFNgOIosOefoycBrxDATi4kKaNAbNStW1f9XfMcORNHCGNBEA0ZMkSFs9q0aXOaXfbEkWXOEQQahBrOREJYDm0uXbrUrjhCeA/nHsFL9fzzz6s/UTAehAeRP4U2kPuEnCXkHkEkIX8K3i4WEiABYxKgODLmvHJUJOBzAlryM4TNDTfcoBKykbyM3V1jx45V+UTR0dGCfCIkPmsCBnlKyAlCUjXCWPAcIV8IIaxatWqZx2Fdb/fu3eqsou7duwsEUlJSknz++edqd9yUKVPUjjcIGexaw461zp07q9De3LlzlW1abtS7774rmzZtUl6viy66SNm2fPlyZQ8SstEHksLxdxQkZuOEbySbs5AACRiTAMWRMeeVoyIBnxPAwYpIXobQQMEWe9yplpycLGeccYYSGL/++qvs2LFD/bxLly4qyTk4OFidoA1RYl0QMkMuEESPdT20D28SxA+EDa4o2bt3ryxYsEDlB6H90aNHq91n6ANtrVmzRvbs2aO66dGjh1x55ZUquRpCCXW1cv755yuhhPL666+rowQQqsP5SxBfsBvHBrCQAAkYkwDFkTHnlaMigWojgIRohKsgWJAQDS+QvUMdYSR2f+GMozlz5iihg/oQWhAkW7durZDDZD0oiCDkA1kKFYgsfF8LkaE9eKOcHd4IW9EWPE54XivawZT4GcYCMcVCAiRgbAIUR8aeX46OBPyaAEQQwlPw8Fx22WUVbIWHBqLpjjvu8Osx0DgSIAHjEaA4Mt6cckQkoBsC8MpA/MDbc9ZZZ6mcIAim2NhYlUM0a9Ysly+V1c2gaSgJkIDfE6A48vspooEkYGwCiYmJ6qBI5BQhtIWdYIMGDZIzzzxThbFYSIAESMDXBCiOfE2c/ZEACZAACZAACfg1AYojv54eGkcCJEACJEACJOBrAhRHvibO/kiABEiABEiABPyaAMWRX08PjSMBEiABEiABEvA1AYojXxNnfyRAAiRAAiRAAn5NgOLIr6eHxpEACZAACZAACfiaAMWRr4mzPxIgARIgARIgAb8mQHHk19ND40iABEiABEiABHxNgOLI18TZHwmQAAmQAAmQgF8ToDjy6+mhcSRAAiRAAiRAAr4mQHHka+LsjwRIgARIgARIwK8JUBz59fTQOBIgARIgARIgAV8ToDjyNXH2RwIkQAIkQAIk4NcEKI78enpoHAmQAAmQAAmQgK8JUBz5mjj7IwESIAESIAES8GsCFEd+PT00jgRIgARIgARIwNcEKI58TZz9kQAJkAAJkAAJ+DUBiiO/nh4aRwIkQAIkQAIk4GsCFEe+Js7+SIAESIAESIAE/JoAxZFfTw+NIwESIAESIAES8DUBiiNfE2d/JEACJEACJEACfk2A4sivp4fGkQAJkAAJkAAJ+JoAxZGvibM/EiABEiABEiABvyZAceTX00PjSIAESIAESIAEfE2A4sjXxNkfCZAACZAACZCAXxOgOPLr6aFxJEACJEACJEACviZAceRr4uyPBEiABEiABEjArwlQHPn19NA4EiABEiABEiABXxOgOPI1cfZHAiRAAiRAAiTg1wQojvx6emgcCZAACZAACZCArwlQHPmaOPsjARIgARIgARLwawIUR349PTSOBEiABEiABEjA1wQojnxNnP2RAAmQAAmQAAn4NQGKI7+eHhpHAiRAAiRAAiTgawIUR74mzv5IgARIgARIgAT8mgDFkV9PD40jARIgARIgARLwNQGKI18TZ38kQAIkQAIkQAJ+TYDiyK+nh8aRAAmQAAmQAAn4mgDFka+Jsz8SIAESIAESIAG/JkBx5NfTQ+NIgARIgARIgAR8TYDiyNfE2R8JkAAJkAAJkIBfE/g/SDCVhBfHwOUAAAAASUVORK5CYII=;" vertex="1" parent="1">
          <mxGeometry x="70" width="583" height="592" as="geometry" />
        </mxCell>
      </root>
    </mxGraphModel>
  </diagram>
</mxfile>
